<?xml version="1.0" encoding="utf-8"?>
<!-- Generator: Adobe Illustrator 21.0.0, SVG Export Plug-In . SVG Version: 6.00 Build 0)  -->
<svg version="1.1" id="Layer_1" xmlns="http://www.w3.org/2000/svg" xmlns:xlink="http://www.w3.org/1999/xlink" x="0px" y="0px"
	 viewBox="0 0 40 40" style="enable-background:new 0 0 40 40;" xml:space="preserve">
<style type="text/css">
	.st0{fill:#D0BD99;}
</style>
<path class="st0" d="M26.3,17.3c0,0.1,0,0.2,0,0.4c0,1.1-0.2,2.2-0.6,3.3c-0.4,1.1-1,2.1-1.7,3c-0.7,0.9-1.7,1.6-2.9,2.2
	c-1.2,0.6-2.5,0.8-3.9,0.8c-1.8,0-3.4-0.5-4.9-1.5c0.2,0,0.4,0,0.8,0c1.5,0,2.8-0.5,4-1.4c-0.7,0-1.3-0.2-1.9-0.7
	c-0.5-0.4-0.9-1-1.1-1.6c0.2,0,0.4,0.1,0.6,0.1c0.3,0,0.6,0,0.9-0.1c-0.7-0.1-1.4-0.5-1.8-1.1c-0.5-0.6-0.7-1.3-0.7-2.1v-0.1
	c0.5,0.3,0.9,0.4,1.5,0.4c-1-0.7-1.4-1.6-1.4-2.7c0-0.6,0.1-1.1,0.4-1.7c1.7,2.2,3.9,3.3,6.6,3.4C20,17.9,20,17.6,20,17.3
	c0-0.9,0.3-1.7,0.9-2.3c0.6-0.6,1.4-1,2.2-1c0.9,0,1.7,0.3,2.3,1c0.8-0.2,1.4-0.4,2-0.8c-0.2,0.8-0.7,1.4-1.4,1.8
	c0.6-0.1,1.2-0.3,1.8-0.5C27.5,16.2,27,16.8,26.3,17.3L26.3,17.3z M10.9,35c2.6,1.5,5.4,2.3,8.5,2.3c3.1,0,5.9-0.8,8.5-2.3
	c2.6-1.5,4.7-3.6,6.2-6.3c1.5-2.6,2.3-5.5,2.3-8.7c0-3.1-0.8-6-2.3-8.7c-1.5-2.6-3.6-4.7-6.2-6.3c-2.6-1.5-5.4-2.3-8.5-2.3
	c-3.1,0-5.9,0.8-8.5,2.3c-2.6,1.5-4.7,3.6-6.2,6.3c-1.5,2.6-2.3,5.5-2.3,8.7c0,3.1,0.8,6,2.3,8.7C6.2,31.4,8.3,33.5,10.9,35z"/>
</svg>
