<?xml version="1.0" encoding="utf-8"?>
<!-- Generator: Adobe Illustrator 21.0.0, SVG Export Plug-In . SVG Version: 6.00 Build 0)  -->
<svg version="1.1" id="Layer_1" xmlns="http://www.w3.org/2000/svg" xmlns:xlink="http://www.w3.org/1999/xlink" x="0px" y="0px"
	 viewBox="0 0 40 40" style="enable-background:new 0 0 40 40;" xml:space="preserve">
<style type="text/css">
	.st0{fill:#D0BD99;}
</style>
<path class="st0" d="M22.2,14.6h-0.1c-0.1,0-0.1,0-0.1,0c0,0-0.1,0-0.1,0c-0.1,0-0.1,0-0.2,0c0,0-0.1,0-0.2,0.1
	c-0.1,0-0.1,0.1-0.2,0.1c0,0-0.1,0.1-0.1,0.2c0,0.1-0.1,0.1-0.1,0.2c0,0.1,0,0.2,0,0.3v1.5h2.4l-0.2,2.6h-2.2v7.7h-3.2v-7.7h-1.6
	v-2.6h1.6v-1.5c-0.1-0.6,0-1.2,0.2-1.7c0.2-0.5,0.4-0.8,0.7-1c0.3-0.2,0.6-0.4,1-0.5c0.4-0.1,0.6-0.2,0.8-0.2c0.2,0,0.3,0,0.4,0H21
	h2.6v2.6H22.2z M5.7,11.6c-1.5,2.6-2.2,5.4-2.2,8.5c0,4.7,1.6,8.7,4.9,12c3.3,3.3,7.2,5,11.8,5c3,0,5.8-0.8,8.4-2.3
	c2.6-1.5,4.6-3.6,6.1-6.2c1.5-2.6,2.2-5.4,2.2-8.5c0-3.1-0.7-5.9-2.2-8.5c-1.5-2.6-3.5-4.7-6.1-6.2c-2.6-1.5-5.4-2.3-8.4-2.3
	c-3,0-5.8,0.8-8.4,2.3C9.2,6.9,7.2,9,5.7,11.6z"/>
</svg>
