<?xml version="1.0" encoding="utf-8"?>
<!-- Generator: Adobe Illustrator 21.0.0, SVG Export Plug-In . SVG Version: 6.00 Build 0)  -->
<svg version="1.1" id="Layer_1" xmlns="http://www.w3.org/2000/svg" xmlns:xlink="http://www.w3.org/1999/xlink" x="0px" y="0px"
	 viewBox="0 0 50 50" style="enable-background:new 0 0 50 50;" xml:space="preserve">
<style type="text/css">
	.st0{fill:none;stroke:#A07B33;stroke-width:1.5;stroke-linecap:round;stroke-linejoin:round;stroke-miterlimit:10;}
</style>
<g>
	<path class="st0" d="M42.8,17.8L25.5,35.1L19.4,37l2.2-5.7L38.9,14 M39,13.9l2.7-2.7l3.8,3.8l-2.7,2.7L39,13.9z"/>
	<path class="st0" d="M33.4,19.5V9.3c0-0.4-0.3-0.7-0.7-0.7H5.3c-0.4,0-0.7,0.3-0.7,0.7v24c0,0.2,0.1,0.4,0.2,0.5l7.5,7.5
		c0.1,0.1,0.3,0.2,0.5,0.2h19.9c0.4,0,0.7-0.3,0.7-0.7V27.2 M12.3,41.1v-6.7c0-0.4-0.3-0.7-0.7-0.7H4.8 M11.1,16.9h14.5 M11.1,21.4
		h14.3 M11.1,25.9h10.5"/>
</g>
</svg>
