<?xml version="1.0" encoding="utf-8"?>
<!-- Generator: Adobe Illustrator 21.1.0, SVG Export Plug-In . SVG Version: 6.00 Build 0)  -->
<svg version="1.1" id="Layer_1" xmlns="http://www.w3.org/2000/svg" xmlns:xlink="http://www.w3.org/1999/xlink" x="0px" y="0px"
	 viewBox="0 0 168.8 55.2" style="enable-background:new 0 0 168.8 55.2;" xml:space="preserve">
<style type="text/css">
	.st0{fill:#FFFFFF;}
	.st1{fill:#C52034;}
</style>
<path class="st0" d="M161.3,0H7.5C3.4,0,0,3.3,0,7.5v40.2c0,4,3.3,7.5,7.5,7.5h153.8c4,0,7.5-3.3,7.5-7.5V7.5
	C168.8,3.5,165.5,0,161.3,0z"/>
<g>
	<g>
		<path class="st1" d="M55.4,13.9h-1.2c0-0.2-0.1-0.6-0.3-1.3h-1.6c-0.1,0.8-0.3,1.2-0.3,1.3h-1c0-0.2,0.3-0.9,0.9-2.3
			c0.6-1.5,0.9-2.3,0.9-2.4H54c0,0.2,0.3,0.9,0.8,2.4C55.2,13.1,55.4,13.8,55.4,13.9z M53.7,12c-0.4-1.2-0.6-2-0.6-2l0,0
			c0,0.2-0.2,0.8-0.6,2H53.7z"/>
		<path class="st1" d="M60,13.9h-0.9c0-0.2-0.3-0.6-1-1.5c-0.8-1.1-1.1-1.7-1.2-2l0,0c0,0.5,0.1,1.1,0.1,1.3c0,0.6,0,1.3,0,2.1h-0.8
			c0-0.8,0-1.5,0-2.4s0-1.7,0-2.3h1.1c0,0.1,0.3,0.6,0.9,1.5c0.6,0.9,1.1,1.5,1.1,2l0,0c0-0.6-0.1-1.1-0.1-1.5c0-0.6,0-1.3,0-2H60
			c0,0.6,0,1.3,0,2.3C60,12.4,60,13.4,60,13.9z"/>
		<path class="st1" d="M65.3,11.6c0,0.8-0.1,1.2-0.6,1.8c-0.4,0.4-1,0.8-1.8,0.8c-0.3,0-0.9,0-1.5,0c0-0.8,0-1.5,0-2.4s0-1.7,0-2.3
			h0.6c0.2,0,0.3,0,0.5,0s0.3,0,0.5,0c0.9,0,1.5,0.1,1.8,0.6C64.9,10.4,65.3,10.9,65.3,11.6z M64.2,11.7c0-0.5-0.1-0.9-0.4-1.2
			c-0.3-0.3-0.6-0.4-1.2-0.4c-0.2,0-0.3,0-0.5,0c0,0.4,0,0.9,0,1.5s0,1.2,0,1.7c0.1,0,0.3,0,0.5,0c0.4,0,0.9-0.2,1.2-0.5
			C64.1,12.4,64.2,12.1,64.2,11.7z"/>
		<path class="st1" d="M69.9,13.9h-1c-0.3-0.9-0.5-1.3-0.6-1.5c-0.1-0.2-0.4-0.3-0.8-0.3c-0.1,0-0.3,0-0.4,0c0,0.6,0,1.2,0,1.8H66
			c0-0.8,0-1.5,0-2.4s0-1.7,0-2.3h0.8c0,0,0.1,0,0.4,0s0.4,0,0.6,0c1.1,0,1.6,0.3,1.6,1c0,0.6-0.3,1.1-0.9,1.2l0,0
			c0.3,0,0.4,0.3,0.6,0.6C69.4,12.6,69.6,13.2,69.9,13.9z M68.6,10.6c0-0.4-0.3-0.8-0.9-0.8c-0.1,0-0.4,0-0.6,0c0,0.3,0,0.9,0,1.5
			c0.1,0,0.3,0,0.3,0C68.3,11.6,68.6,11.3,68.6,10.6z"/>
		<path class="st1" d="M75,11.6c0,0.8-0.1,1.3-0.6,1.8c-0.4,0.6-1,0.8-1.6,0.8s-1.2-0.2-1.6-0.6c-0.5-0.5-0.6-1.1-0.6-1.7
			c0-0.8,0.1-1.3,0.6-1.8c0.4-0.4,1-0.8,1.6-0.8c0.6,0,1.2,0.1,1.6,0.6C74.9,10.4,75,10.9,75,11.6z M74.1,11.7
			c0-0.5-0.2-0.9-0.5-1.2c-0.3-0.3-0.6-0.4-0.9-0.4c-0.3,0-0.6,0.2-0.9,0.4c-0.3,0.3-0.3,0.8-0.3,1.2c0,0.4,0.2,0.9,0.5,1.2
			c0.3,0.3,0.6,0.5,0.9,0.5c0.3,0,0.6-0.2,0.9-0.5C73.9,12.6,74.1,12.1,74.1,11.7z"/>
		<path class="st1" d="M77.1,13.9h-1.1c0-0.8,0-1.5,0-2.4s0-1.7,0-2.3h1.1c0,0.6,0,1.3,0,2.3S77.1,13.4,77.1,13.9z"/>
		<path class="st1" d="M82.2,11.6c0,0.8-0.1,1.2-0.6,1.8c-0.5,0.4-1.1,0.8-1.8,0.8c-0.3,0-0.9,0-1.5,0c0-0.8,0-1.5,0-2.4
			s0-1.7,0-2.3h0.6c0.2,0,0.3,0,0.5,0c0.1,0,0.3,0,0.4,0c0.9,0,1.5,0.1,1.8,0.6C82.1,10.4,82.2,10.9,82.2,11.6z M81.3,11.7
			c0-0.5-0.2-0.9-0.4-1.2c-0.3-0.3-0.6-0.4-1.2-0.4c-0.1,0-0.3,0-0.4,0c0,0.4,0,0.9,0,1.5s0,1.2,0,1.7c0.2,0,0.3,0,0.4,0
			c0.5,0,0.9-0.2,1.2-0.5C81.1,12.4,81.3,12.1,81.3,11.7z"/>
		<path class="st1" d="M89.1,13.9h-1.2c0-0.2-0.1-0.6-0.3-1.3H86c-0.2,0.8-0.3,1.2-0.3,1.3h-1c0-0.2,0.3-0.9,0.9-2.3
			c0.6-1.5,0.9-2.3,0.9-2.4h1.4c0,0.2,0.3,0.9,0.8,2.4C88.8,13.1,89.1,13.8,89.1,13.9z M87.4,12c-0.4-1.2-0.6-2-0.6-2l0,0
			c0,0.2-0.2,0.8-0.6,2H87.4z"/>
		<path class="st1" d="M93.3,10.5c0,0.6-0.2,1-0.6,1.2c-0.4,0.3-0.9,0.5-1.5,0.5c-0.1,0-0.1,0-0.3,0c0,0.4,0,1,0,1.8h-1
			c0-0.8,0-1.5,0-2.4s0-1.7,0-2.3h0.6c0.2,0,0.3,0,0.4,0c0.3,0,0.5,0,0.6,0c0.4,0,0.9,0.1,1.2,0.3C93.1,9.9,93.3,10.2,93.3,10.5z
			 M92.4,10.8c0-0.4-0.3-0.8-1-0.8c-0.2,0-0.3,0-0.6,0c0,0.5,0,0.9,0,1.5h0.2C91.9,11.6,92.4,11.3,92.4,10.8z"/>
		<path class="st1" d="M97.5,10.5c0,0.6-0.1,1-0.6,1.2c-0.4,0.3-0.9,0.5-1.5,0.5c-0.1,0-0.1,0-0.3,0c0,0.4,0,1,0,1.8h-1.1
			c0-0.8,0-1.5,0-2.4s0-1.7,0-2.3h0.6c0.1,0,0.3,0,0.5,0c0.3,0,0.5,0,0.6,0c0.5,0,0.9,0.1,1.2,0.3C97.4,9.9,97.5,10.2,97.5,10.5z
			 M96.6,10.8c0-0.4-0.3-0.8-1.1-0.8c-0.1,0-0.3,0-0.6,0c0,0.5,0,0.9,0,1.5h0.2C96.1,11.6,96.6,11.3,96.6,10.8z"/>
		<path class="st1" d="M104.5,11.6c0,0.8-0.2,1.3-0.6,1.8c-0.5,0.4-1.1,0.8-1.7,0.8s-1.2-0.2-1.7-0.6c-0.4-0.5-0.6-1.1-0.6-1.7
			c0-0.8,0.2-1.3,0.6-1.8c0.5-0.4,1.1-0.8,1.7-0.8s1.2,0.1,1.7,0.6C104.4,10.4,104.5,10.9,104.5,11.6z M103.5,11.7
			c0-0.5-0.1-0.9-0.5-1.2c-0.3-0.3-0.6-0.4-0.9-0.4c-0.3,0-0.6,0.2-0.9,0.4c-0.3,0.3-0.3,0.8-0.3,1.2c0,0.4,0.2,0.9,0.5,1.2
			c0.3,0.3,0.6,0.5,0.9,0.5c0.3,0,0.6-0.2,0.9-0.5C103.5,12.6,103.5,12.1,103.5,11.7z"/>
		<path class="st1" d="M109.4,13.9h-0.9c0-0.2-0.3-0.6-1-1.5c-0.8-1.1-1-1.7-1.2-2l0,0c0,0.5,0.2,1.1,0.2,1.3c0,0.6,0,1.3,0,2.1
			h-0.9c0-0.8,0-1.5,0-2.4s0-1.7,0-2.3h1c0,0.1,0.3,0.6,0.9,1.5c0.6,0.9,1.1,1.5,1.1,2l0,0c0-0.6-0.2-1.1-0.2-1.5c0-0.6,0-1.3,0-2
			h0.9c0,0.6,0,1.3,0,2.3C109.4,12.4,109.4,13.4,109.4,13.9z"/>
	</g>
	<g>
		<path class="st1" d="M67.4,28.9c0,2.3-0.8,4.2-2.1,5.6c-1.5,1.7-3.6,2.4-6,2.4s-4.4-0.9-6-2.6c-1.6-1.6-2.6-3.7-2.6-6.1
			s0.9-4.5,2.6-6.1c1.6-1.7,3.8-2.5,6-2.5c1.2,0,2.3,0.3,3.4,0.8c1.1,0.4,1.9,1,2.6,1.8l-1.5,1.5c-1.1-1.4-2.6-2-4.5-2
			c-1.8,0-3.3,0.6-4.5,1.8s-1.9,2.9-1.9,4.8s0.6,3.6,1.9,4.8c1.2,1.2,2.7,1.8,4.5,1.8s3.4-0.6,4.6-1.8c0.7-0.8,1.2-1.9,1.4-3.3h-6
			v-2.1h7.9C67.2,28,67.4,28.5,67.4,28.9z"/>
		<path class="st1" d="M69.8,26.5c1.1-1.2,2.6-1.7,4.2-1.7c1.7,0,3.2,0.6,4.2,1.7c1.1,1.2,1.7,2.6,1.7,4.3c0,1.8-0.6,3.2-1.7,4.3
			c-1,1.2-2.5,1.7-4.2,1.7c-1.6,0-3.1-0.6-4.2-1.7c-1.1-1.2-1.6-2.5-1.6-4.3C68.1,29.1,68.7,27.6,69.8,26.5z M71.4,33.8
			c0.8,0.8,1.7,1.1,2.6,1.1c1.1,0,1.8-0.3,2.6-1.1s1.1-1.8,1.1-3s-0.3-2.3-1.1-3s-1.6-1.1-2.6-1.1c-1.1,0-1.8,0.3-2.6,1.1
			s-1,1.8-1,3C70.4,32.1,70.6,33,71.4,33.8z"/>
		<path class="st1" d="M82.2,26.5c1.1-1.2,2.6-1.7,4.2-1.7c1.7,0,3.2,0.6,4.2,1.7c1,1.2,1.6,2.6,1.6,4.3c0,1.8-0.6,3.2-1.6,4.3
			c-1.1,1.2-2.6,1.7-4.2,1.7c-1.6,0-3.1-0.6-4.2-1.7c-1.1-1.2-1.6-2.5-1.6-4.3C80.6,29.1,81,27.6,82.2,26.5z M83.7,33.8
			c0.8,0.8,1.7,1.1,2.6,1.1c1.1,0,1.8-0.3,2.6-1.1s1.1-1.8,1.1-3s-0.3-2.3-1.1-3s-1.7-1.1-2.6-1.1c-1.1,0-1.8,0.3-2.6,1.1
			s-1.1,1.8-1.1,3C82.6,32.1,82.9,33,83.7,33.8z"/>
		<path class="st1" d="M98.4,41.8c-1.3,0-2.4-0.3-3.3-1c-0.9-0.6-1.5-1.5-1.8-2.3l1.9-0.8c0.1,0.6,0.6,1.2,1.2,1.5
			c0.6,0.4,1.2,0.6,2,0.6c1.2,0,2.1-0.3,2.7-1s1-1.7,1-2.9v-1H102c-0.3,0.6-0.9,1-1.5,1.3c-0.8,0.3-1.5,0.6-2.3,0.6
			c-1.5,0-2.7-0.6-3.8-1.8c-1.1-1.2-1.7-2.6-1.7-4.4s0.6-3.1,1.7-4.3c1-1.2,2.3-1.8,3.8-1.8c0.9,0,1.6,0.1,2.3,0.6
			c0.8,0.3,1.2,0.9,1.5,1.4h0.1V25h2.1v10.6c0,2-0.6,3.5-1.6,4.3C101.4,41.3,100,41.8,98.4,41.8z M98.5,35c1,0,1.8-0.3,2.5-1.1
			s1-1.8,1-3c0-1.2-0.3-2.3-1-3s-1.5-1.1-2.5-1.1s-1.8,0.3-2.5,1.1s-1,1.8-1,3c0,1.2,0.3,2.3,1,3C96.8,34.5,97.6,35,98.5,35z"/>
		<path class="st1" d="M108.3,36.5h-2.1V19.9h2.1V36.5z"/>
		<path class="st1" d="M115.4,36.9c-1.7,0-3.2-0.6-4.2-1.7c-1-1.2-1.6-2.5-1.6-4.3c0-1.7,0.5-3,1.5-4.2s2.4-1.8,4-1.8s3,0.6,4,1.6
			s1.5,2.6,1.5,4.4v0.4h-8.8c0,1.2,0.5,2.1,1.2,2.7s1.5,1,2.4,1c1.5,0,2.5-0.6,3.1-1.9l2,0.8c-0.3,0.9-1,1.7-1.8,2.3
			C117.6,36.6,116.5,36.9,115.4,36.9z M118.4,29.4c0-0.6-0.3-1.2-0.9-1.8c-0.6-0.6-1.3-0.9-2.4-0.9c-0.8,0-1.5,0.3-2.1,0.8
			s-0.9,1.2-1.2,1.9C111.8,29.4,118.4,29.4,118.4,29.4z"/>
		<path class="st1" d="M129,36.5h-2.1V19.9h5.7c1.4,0,2.5,0.5,3.6,1.4c1,0.9,1.5,2.1,1.5,3.4c0,1.3-0.5,2.6-1.5,3.4
			c-1.1,0.9-2.3,1.3-3.6,1.3h-3.5v6.9H129z M129,27.8h3.6c0.9,0,1.6-0.3,2.1-0.9c0.6-0.6,0.8-1.2,0.8-1.9s-0.3-1.4-0.8-1.9
			c-0.6-0.6-1.2-0.9-2.1-0.9H129V27.8z"/>
		<path class="st1" d="M141.1,36.5H139V19.9h2.1V36.5z"/>
		<path class="st1" d="M146.5,36.9c-1.2,0-2.3-0.3-3-1.1s-1.2-1.6-1.2-2.7c0-1.2,0.4-2.3,1.5-2.9c0.9-0.8,2.1-1.1,3.6-1.1
			c1.2,0,2.3,0.3,3,0.8v-0.3c0-0.9-0.3-1.5-0.9-1.9c-0.6-0.4-1.2-0.8-2.1-0.8c-0.6,0-1.2,0.2-1.7,0.4c-0.4,0.3-0.9,0.8-1,1.2l-2-1
			c0.3-0.8,0.8-1.4,1.5-1.9c0.8-0.6,1.8-0.9,3-0.9c1.5,0,2.7,0.4,3.6,1.2c0.9,0.9,1.5,2.1,1.5,3.6v6.8h-2.1v-1.5h-0.1
			C149.4,36.2,148.2,36.9,146.5,36.9z M147,35c0.9,0,1.6-0.3,2.4-1.1c0.8-0.6,1.1-1.3,1.1-2.3c-0.6-0.4-1.5-0.8-2.7-0.8
			c-1,0-1.8,0.2-2.4,0.6c-0.4,0.4-0.8,0.9-0.8,1.5c0,0.6,0.3,1.1,0.8,1.4C145.8,34.8,146.4,35,147,35z"/>
		<path class="st1" d="M157,41.4h-2.3l2.7-5.7l-4.6-10.6h2.3l3.3,8.1l0,0l3.3-8.1h2.3L157,41.4z"/>
	</g>
	<g>
		<path class="st1" d="M11.1,27.9c0-5.3,0-10.5,0-15.8c0-0.6,0.2-1.2,0.6-1.8c0.2-0.2,0.3-0.3,0.5,0c3.6,3.6,7,7.2,10.6,10.8
			c2.3,2.4,4.6,4.6,6.9,7.1c0.1,0.3,0.3,0.3,0,0.6c-5.7,5.6-11.3,11.3-17,17c-0.3,0.3-0.6,0.3-0.9,0c-0.6-0.5-0.9-1.1-0.9-1.8
			c0-3.1,0-6.3,0-9.3C11.1,32.4,11.1,30.2,11.1,27.9L11.1,27.9z"/>
		<path class="st1" d="M13,9.8c0.5,0,0.8,0.2,1.1,0.3c7.2,4.1,14.4,8.1,21.6,12.2c0.3,0.1,0.3,0.3,0,0.6c-1.6,1.7-3.1,3.2-4.8,4.8
			c-0.2,0.2-0.3,0.3-0.4,0c-5.7-5.8-11.5-11.7-17.3-17.5C13.2,9.9,13.2,9.9,13,9.8z"/>
		<path class="st1" d="M14.7,45.6C20,40.3,25.2,35,30.4,29.7c0.3-0.3,0.4-0.3,0.8,0c1.4,1.4,2.7,2.7,4.1,4.1c0.3,0.3,0.3,0.3,0,0.5
			c-6.8,3.8-13.5,7.3-20.1,11.1C14.8,45.5,14.7,45.6,14.7,45.6z"/>
		<path class="st1" d="M44.7,28c0,0.6-0.3,1.1-0.8,1.3c-0.3,0.3-0.6,0.4-1,0.6c-2.1,1.1-4,2.2-6.2,3.3c-0.3,0.2-0.4,0.2-0.6-0.2
			c-1.5-1.5-2.8-3-4.3-4.5c-0.2-0.1-0.2-0.3,0-0.6c1.6-1.7,3.4-3.3,5.1-5.1c0.2-0.1,0.3-0.1,0.6-0.1c2,1.2,4.1,2.3,6,3.4
			C44.1,26.9,44.6,27.3,44.7,28z"/>
	</g>
</g>
</svg>
