<?xml version="1.0" encoding="utf-8"?>
<!-- Generator: Adobe Illustrator 21.0.0, SVG Export Plug-In . SVG Version: 6.00 Build 0)  -->
<svg version="1.1" id="Layer_1" xmlns="http://www.w3.org/2000/svg" xmlns:xlink="http://www.w3.org/1999/xlink" x="0px" y="0px"
	 viewBox="0 0 50 50" style="enable-background:new 0 0 50 50;" xml:space="preserve">
<style type="text/css">
	.st0{fill:none;stroke:#A07B33;stroke-width:1.5;stroke-linecap:round;stroke-linejoin:round;stroke-miterlimit:10;}
</style>
<g>
	<circle class="st0" cx="39.6" cy="30.3" r="7.4"/>
	<g transform="translate(0,-952.36218)">
		<path class="st0" d="M24.6,984.7 M3,986.3v-23.5c0-0.8,0.7-1.5,1.5-1.5l0,0h30.6c0.8,0,1.5,0.7,1.5,1.5V976 M22.5,966.9
			c-2.5,0-4.5,2-4.5,4.5c0,2.5,2,4.5,4.5,4.5s4.5-2,4.5-4.5C27.1,968.9,25,966.9,22.5,966.9z M36.6,989.6v2.3c0,0.8-0.7,1.5-1.5,1.5
			H4.5c-0.8,0-1.5-0.7-1.5-1.5v-6.3L14,975.5l7.6,10.2c0.2,0.2,0.5,0.2,0.7,0l6.7-7.2l3.2,3.2"/>
	</g>
	<polyline class="st0" points="42.5,28.5 39,32.1 36.8,29.9 	"/>
</g>
</svg>
