<?xml version="1.0" encoding="utf-8"?>
<!-- Generator: Adobe Illustrator 21.0.0, SVG Export Plug-In . SVG Version: 6.00 Build 0)  -->
<svg version="1.1" id="Layer_1" xmlns="http://www.w3.org/2000/svg" xmlns:xlink="http://www.w3.org/1999/xlink" x="0px" y="0px"
	 viewBox="0 0 40 40" style="enable-background:new 0 0 40 40;" xml:space="preserve">
<style type="text/css">
	.st0{fill:#D0BD99;}
</style>
<g>
	<path class="st0" d="M11.5,5.1c2.6-1.5,5.4-2.3,8.5-2.3s5.9,0.8,8.5,2.3c2.6,1.5,4.7,3.6,6.2,6.3c1.5,2.6,2.3,5.5,2.3,8.7
		c0,3.1-0.8,6-2.3,8.6c-1.5,2.6-3.6,4.7-6.2,6.2c-2.6,1.5-5.4,2.3-8.5,2.3s-5.9-0.8-8.5-2.3c-2.6-1.5-4.6-3.6-6.1-6.2
		c-1.5-2.6-2.3-5.5-2.3-8.6c0-3.1,0.8-6,2.3-8.7C6.9,8.7,8.9,6.7,11.5,5.1z M8.3,24.9v-4.3c-0.7,0.6-1,1.3-1,2.1
		C7.3,23.6,7.7,24.3,8.3,24.9z M9.4,20v5.4c0.2,0.1,0.5,0.1,0.8,0.1h0.3v-5.6c0,0-0.1,0-0.1,0s-0.1,0-0.1,0C10,19.9,9.7,19.9,9.4,20
		z M11.5,20.2v5.3h1.1v-7.1c-0.5,0.6-0.8,1.2-0.8,1.9C11.6,20.3,11.6,20.3,11.5,20.2z M13.6,17.4v8.1h1v-8.6
		C14.3,17,14,17.2,13.6,17.4z M15.7,16.7v8.8h1.1v-8.8c-0.2,0-0.4,0-0.7,0H15.7z M17.3,16.8v8.7h1.6v-8.8c-0.2,0.3-0.4,0.5-0.5,0.6
		C18.1,17.1,17.8,17,17.3,16.8z M19.4,16.1v9.4h10.1c1,0,1.7-0.3,2.3-0.9s0.8-1.3,0.8-2.2c0-0.9-0.3-1.6-0.9-2.2s-1.3-0.9-2.1-0.9
		c-0.4,0-0.8,0.1-1.2,0.2c-0.1-1.4-0.7-2.5-1.7-3.4c-1-0.9-2.2-1.4-3.6-1.4C21.7,14.8,20.5,15.2,19.4,16.1z"/>
</g>
</svg>
