<?xml version="1.0" encoding="utf-8"?>
<!-- Generator: Adobe Illustrator 21.0.0, SVG Export Plug-In . SVG Version: 6.00 Build 0)  -->
<svg version="1.1" id="Layer_1" xmlns="http://www.w3.org/2000/svg" xmlns:xlink="http://www.w3.org/1999/xlink" x="0px" y="0px"
	 viewBox="0 0 40 40" style="enable-background:new 0 0 40 40;" xml:space="preserve">
<style type="text/css">
	.st0{fill:#D0BD99;}
</style>
<g>
	<path class="st0" d="M11.5,4.8c2.6-1.5,5.4-2.3,8.5-2.3c3.1,0,5.9,0.8,8.5,2.3s4.6,3.6,6.1,6.3c1.5,2.6,2.3,5.5,2.3,8.6
		s-0.8,6-2.3,8.6c-1.5,2.6-3.6,4.7-6.1,6.2s-5.4,2.3-8.5,2.3c-3.1,0-5.9-0.8-8.5-2.3c-2.6-1.5-4.6-3.6-6.1-6.2
		c-1.5-2.6-2.3-5.5-2.3-8.6s0.8-6,2.3-8.6C6.9,8.4,8.9,6.3,11.5,4.8z M27.8,27.3c0.8,0,1.5-0.7,2.1-2.2c0.6-1.5,0.9-3.3,0.9-5.4
		s-0.3-3.9-0.9-5.4s-1.3-2.2-2.1-2.2h-0.1h-0.1H12.4h-0.1h0c-0.8,0-1.5,0.7-2.1,2.2c-0.6,1.5-0.9,3.3-0.9,5.4s0.3,3.9,0.9,5.4
		c0.6,1.5,1.3,2.2,2.1,2.2h0h0.1h15.3H27.8L27.8,27.3z M17.7,23.6v-7.8l6,3.9L17.7,23.6z"/>
</g>
</svg>
