<?xml version="1.0" encoding="utf-8"?>
<!-- Generator: Adobe Illustrator 21.0.0, SVG Export Plug-In . SVG Version: 6.00 Build 0)  -->
<svg version="1.1" id="Layer_1" xmlns="http://www.w3.org/2000/svg" xmlns:xlink="http://www.w3.org/1999/xlink" x="0px" y="0px"
	 viewBox="0 0 50 50" style="enable-background:new 0 0 50 50;" xml:space="preserve">
<style type="text/css">
	.st0{fill:none;stroke:#A07B33;stroke-width:1.5;stroke-linecap:round;stroke-linejoin:round;stroke-miterlimit:10;}
</style>
<g>
	<g>
		<path class="st0" d="M31.5,24.6c0.4-1.3,0.6-2.6,0.6-4c0-7.2-5.8-13-13-13s-13,5.8-13,13c0,2.8,0.9,5.5,2.5,7.6l10.5,14.2l3.1-4.2
			"/>
		<circle class="st0" cx="19.1" cy="19.4" r="3.9"/>
	</g>
	<path class="st0" d="M43.9,27.4v9.9c0,0.8-0.7,1.5-1.5,1.5H23.4c-0.8,0-1.5-0.7-1.5-1.5v-9.9 M32.9,34.5 M43.9,27.4l-10.2,6.4
		c-0.5,0.3-1.1,0.3-1.6,0l-10.2-6.4v-1.2c0-0.8,0.7-1.5,1.5-1.5h18.9c0.8,0,1.5,0.7,1.5,1.5V27.4z"/>
</g>
</svg>
