<?xml version="1.0" encoding="utf-8"?>
<!-- Generator: Adobe Illustrator 21.1.0, SVG Export Plug-In . SVG Version: 6.00 Build 0)  -->
<svg version="1.1" id="Layer_1" xmlns="http://www.w3.org/2000/svg" xmlns:xlink="http://www.w3.org/1999/xlink" x="0px" y="0px"
	 viewBox="0 0 168.8 55.2" style="enable-background:new 0 0 168.8 55.2;" xml:space="preserve">
<style type="text/css">
	.st0{fill:#FFFFFF;}
	.st1{fill:#C52034;}
</style>
<path class="st0" d="M152.3,0H6.8C3,0,0,3,0,6.8v42c0,3.8,3,6.8,6.8,6.8h145.5c3.8,0,6.8-3,6.8-6.8v-42C158.8,3,155.8,0,152.3,0z"/>
<g>
	<g>
		<path class="st1" d="M20.8,12.5h3c0.1,0,0.3-0.2,0.3-0.3c0-0.2-0.2-0.3-0.3-0.3h-3c-0.1,0-0.3,0.2-0.3,0.3
			C20.4,12.3,20.5,12.5,20.8,12.5z M22.3,39c-0.9,0-1.5,0.8-1.5,1.7s0.8,1.7,1.5,1.7c0.9,0,1.6-0.8,1.6-1.7
			C23.8,39.8,23.2,39,22.3,39z M14.5,37.7H30V14.8H14.5V37.7z M64.2,30.2c-0.8,0-1.4,0.3-2,0.8c-0.6,0.4-1,1.2-1.2,1.9
			c-0.1,0.3-0.1,0.6-0.1,0.9V36c0,0.9,0.3,1.8,0.9,2.4c0.6,0.6,1.4,1,2.3,1c1.1,0,1.9-0.4,2.6-1.3c0.6-0.9,0.9-2,0.9-3.5
			c0-1.3-0.3-2.4-0.9-3.1C66.1,30.6,65.2,30.2,64.2,30.2z M118.3,30c-1.2,0-2.1,0.6-2.7,1.7c-0.6,0.9-0.8,1.9-0.8,3.2
			c0,1.2,0.3,2.3,0.8,3.1c0.6,1.1,1.5,1.7,2.7,1.7s2-0.6,2.7-1.7c0.6-0.9,0.9-1.9,0.9-3.1c0-1.2-0.3-2.3-0.8-3.2
			C120.4,30.4,119.5,30,118.3,30z M78.9,30.2c-0.8,0-1.3,0.3-1.9,0.8c-0.6,0.4-1.1,1.2-1.2,1.9c-0.1,0.3-0.1,0.6-0.1,0.9V36
			c0,0.9,0.3,1.8,0.9,2.4c0.6,0.6,1.4,1,2.3,1c1.2,0,1.9-0.4,2.6-1.3c0.6-0.9,0.9-2,0.9-3.5c0-1.3-0.3-2.4-0.9-3.1
			C80.8,30.6,79.9,30.2,78.9,30.2z M48.1,25.3L48.1,25.3c-0.3,0.8-0.6,2-0.9,3.5l-1.5,4.8h4.9l-1.5-4.8
			C48.9,28.3,48.6,27.2,48.1,25.3z M141,29.8c-0.9,0-1.8,0.5-2.4,1.2c-0.5,0.6-0.8,1.3-0.9,2.3h6.1c0-0.9-0.1-1.7-0.6-2.3
			C142.8,30.3,142,29.8,141,29.8z M61.2,16.7c0-0.2,0-0.3,0-0.5v-0.9c-1.2,0-2.4,0.3-2.4,1.4c0,0.8,0.4,1,1.1,1
			C60.6,17.5,61,17.1,61.2,16.7z M45,12.3c-0.1-0.6-0.3-1.2-0.4-1.8l0,0c-0.1,0.6-0.3,1.2-0.4,1.8l-0.8,2.4h2.4L45,12.3z
			 M143.7,11.5c2.3,0,3,1.8,3,3.3c0,0.3,0,0.6,0,0.8H142c0,1.2,1.1,1.8,2.1,1.8c0.8,0,1.4-0.2,2-0.3l0.3,1.2
			c-0.6,0.3-1.4,0.5-2.4,0.5c-2.3,0-3.6-1.3-3.6-3.5C140.3,13.3,141.4,11.5,143.7,11.5z M116.1,11.8l0.1,1.1l0,0
			c0.3-0.6,1.1-1.2,2.3-1.2c1.2,0,2.4,0.8,2.4,3v4h-1.8v-3.9c0-1.1-0.3-1.8-1.4-1.8c-0.8,0-1.2,0.5-1.3,1.1c0,0.2-0.2,0.3-0.2,0.6v4
			h-1.8v-4.8c0-0.8,0-1.5,0-2.1H116.1z M97.8,11.5c2.3,0,3,1.8,3,3.3c0,0.3,0,0.6,0,0.8h-4.7c0,1.2,1.1,1.8,2.1,1.8
			c0.8,0,1.4-0.2,2-0.3l0.3,1.2c-0.6,0.3-1.4,0.5-2.4,0.5c-2.3,0-3.6-1.3-3.6-3.5C94.5,13.3,95.5,11.5,97.8,11.5z M90.6,8.5h1.8v10
			h-1.8V8.5z M76.8,12.9c-0.8,0-1.3,0.2-1.8,0.4l-0.3-1.2c0.4-0.3,1.3-0.6,2.5-0.6c2.3,0,2.9,1.3,2.9,2.8V17c0,0.6,0,1.2,0.1,1.6
			h-1.5l-0.1-0.8l0,0c-0.5,0.6-1.2,0.9-2.1,0.9c-1.3,0-2.1-1.1-2.1-2.1c0-1.8,1.5-2.5,4.1-2.5V14C78.3,13.7,78.1,12.9,76.8,12.9z
			 M66.6,8.9c0.6,0,0.9,0.4,1,0.9c0,0.5-0.4,0.9-1,0.9c-0.6,0-0.9-0.4-0.9-0.9C65.5,9.3,66,8.9,66.6,8.9z M67.5,11.8v6.9h-1.8v-6.9
			H67.5z M43.5,9.1h2.3l3.2,9.6h-2L46,15.9h-3l-0.8,2.7h-1.8L43.5,9.1z M31.9,40.8c0,1.6-1.4,3-3,3H15.9c-1.6,0-3-1.4-3-3V11.7
			c0-1.7,1.4-3,3-3h13.1c1.6,0,3,1.3,3,3V40.8z M52.9,41.4L51.1,36h-6l-1.7,5.4h-3.1l6-18.6h3.8l6,18.6H52.9z M53.5,18.6h-1.6
			l-2.5-6.9h1.9l1.1,3.5c0.1,0.6,0.3,1.2,0.4,1.8l0,0c0.1-0.6,0.3-1,0.4-1.8l1.1-3.5h1.8L53.5,18.6z M57.1,16.8c0-1.8,1.5-2.5,4-2.5
			v-0.2c0-0.4-0.1-1.2-1.3-1.2c-0.8,0-1.4,0.1-1.8,0.4l-0.3-1.2c0.5-0.3,1.4-0.6,2.6-0.6c2.3,0,2.9,1.4,2.9,2.9v2.5
			c0,0.6,0,1.2,0.1,1.6h-1.5l-0.1-0.8l0,0c-0.5,0.6-1.2,0.9-2.1,0.9C57.9,18.9,57.1,17.8,57.1,16.8z M68.8,40.1
			c-1.1,1.2-2.6,1.8-4.1,1.8c-1.8,0-3-0.6-3.8-2V47h-3V32.6c0-1.5,0-2.8-0.1-4.3h2.5l0.2,2.1l0,0c1-1.6,2.5-2.4,4.5-2.4
			c1.6,0,2.8,0.6,3.9,1.8c1.1,1.2,1.7,2.8,1.7,4.9C70.6,36.9,70,38.7,68.8,40.1z M71.8,18.6H70v-10h1.8V18.6z M83.5,40.1
			c-1.1,1.2-2.6,1.8-4.1,1.8c-1.8,0-3-0.6-3.8-2V47h-3V32.6c0-1.5,0-2.8-0.1-4.3h2.5l0.2,2.1l0,0c1.1-1.6,2.6-2.4,4.5-2.4
			c1.7,0,2.8,0.6,3.9,1.8c1,1.2,1.6,2.8,1.6,4.9C85.3,36.9,84.7,38.7,83.5,40.1z M85.5,18.9c-0.9,0-1.6-0.3-2.3-1.2l0,0l-0.1,1h-1.5
			c0-0.5,0-1.2,0-2V8.5h1.9v4.2l0,0c0.4-0.6,1.2-1,2.3-1c1.7,0,2.8,1.3,2.8,3.4C88.6,17.5,87.1,18.9,85.5,18.9z M100.5,40.1
			c-1.2,1-2.9,1.6-5.1,1.6c-1.9,0-3.6-0.4-4.8-1.2l0.8-2.6c1.3,0.8,2.7,1.2,4.3,1.2c1,0,2-0.3,2.5-0.8c0.6-0.5,0.9-1.2,0.9-2.1
			c0-0.8-0.3-1.4-0.8-2c-0.4-0.5-1.3-1-2.5-1.5c-3.3-1.2-4.8-3-4.8-5.3c0-1.5,0.6-2.7,1.7-3.8c1.2-0.9,2.7-1.5,4.5-1.5
			c1.7,0,3.2,0.3,4.2,0.9l-0.8,2.4c-1-0.6-2.3-0.9-3.6-0.9c-1,0-1.8,0.3-2.4,0.8c-0.5,0.4-0.8,1-0.8,1.6c0,0.8,0.3,1.4,0.9,1.8
			c0.5,0.4,1.4,0.9,2.7,1.5c1.6,0.6,2.7,1.3,3.6,2.3c0.8,0.9,1.2,1.9,1.2,3.2C102.1,37.8,101.5,39.2,100.5,40.1z M111,30.3h-3.3v6.4
			c0,1.7,0.6,2.4,1.8,2.4c0.6,0,0.9,0,1.4-0.2l0.1,2.3c-0.6,0.2-1.4,0.3-2.3,0.3c-1.2,0-2.1-0.3-2.7-1.1s-1-1.9-1-3.6v-6.8h-2v-2.3
			h2v-2.4l2.9-0.9v3.3h3.3v2.4H111z M109.3,18.9c-2,0-3.5-1.4-3.5-3.6s1.5-3.6,3.6-3.6c2.1,0,3.5,1.5,3.5,3.6
			C112.8,17.7,111,18.9,109.3,18.9z M123.1,39.8c-1.2,1.3-2.8,2.1-4.9,2.1c-2,0-3.6-0.6-4.7-1.9c-1.2-1.3-1.8-3-1.8-5
			c0-2.1,0.6-3.8,1.8-5.1c1.2-1.3,2.8-1.9,4.8-1.9c2,0,3.6,0.6,4.8,1.9c1.2,1.2,1.7,2.8,1.7,5C124.9,36.8,124.3,38.4,123.1,39.8z
			 M126.3,11.8h1v-1.3L129,10v1.8h1.7v1.3H129v3c0,0.9,0.3,1.2,0.9,1.2c0.3,0,0.4,0,0.8,0v1.3c-0.3,0.2-0.8,0.2-1.2,0.2
			c-0.6,0-1.2-0.2-1.5-0.6c-0.5-0.5-0.6-1-0.6-2V13h-1L126.3,11.8L126.3,11.8z M133.9,30.8c-0.3,0-0.6-0.2-0.9-0.2
			c-1,0-1.8,0.5-2.4,1.2c-0.4,0.8-0.8,1.5-0.8,2.7v7h-3v-9.3c0-1.5,0-3-0.1-4.2h2.5l0.2,2.6h0.1c0.3-0.9,0.8-1.7,1.5-2.1
			c0.6-0.5,1.4-0.8,2.1-0.8c0.3,0,0.4,0,0.8,0V30.8z M134.4,14.5v4.2h-1.8V8.5h1.8v4.2l0,0c0.1-0.3,0.5-0.6,0.9-0.8
			c0.3-0.2,0.8-0.3,1.2-0.3c1.2,0,2.4,0.8,2.4,3v4h-1.8v-3.9c0-1.1-0.3-1.8-1.4-1.8c-0.8,0-1.2,0.5-1.4,1.1
			C134.4,14.1,134.4,14.4,134.4,14.5z M146.5,35.6h-8.8c0,1.3,0.4,2.4,1.3,3c0.8,0.6,1.7,0.9,2.9,0.9c1.4,0,2.6-0.1,3.6-0.6L146,41
			c-1.2,0.6-2.7,0.8-4.5,0.8c-2.1,0-3.8-0.6-5-1.8s-1.8-2.8-1.8-5c0-1.9,0.6-3.8,1.6-5.1c1.2-1.5,2.7-2.1,4.6-2.1
			c2,0,3.5,0.8,4.4,2.1c0.8,1.2,1.2,2.5,1.2,4.2C146.7,34.7,146.7,35.1,146.5,35.6z M85.2,13c-0.8,0-1.4,0.5-1.5,1.2
			c0,0.2,0,0.3,0,0.5v1c0,0.2,0,0.3,0,0.5c0.1,0.8,0.8,1.2,1.5,1.2c1,0,1.8-0.9,1.8-2.3C86.8,14,86.4,13,85.2,13z M97.6,12.8
			c-1,0-1.5,1-1.6,1.7h3C99.1,13.8,98.8,12.8,97.6,12.8z M109.3,12.9c-1.2,0-1.8,1.2-1.8,2.4c0,1.4,0.6,2.4,1.7,2.4
			c1,0,1.6-0.9,1.6-2.4C111,14.1,110.5,12.9,109.3,12.9z M75.9,16.7c0,0.8,0.5,1,1.1,1c0.8,0,1.2-0.5,1.4-0.9c0-0.1,0-0.3,0-0.5
			v-0.9C77.1,15.3,75.9,15.6,75.9,16.7z M143.5,12.8c-1,0-1.5,1-1.6,1.7h3C145,13.8,144.8,12.8,143.5,12.8z"/>
	</g>
</g>
</svg>
