<?xml version="1.0" encoding="utf-8"?>
<!-- Generator: Adobe Illustrator 21.0.0, SVG Export Plug-In . SVG Version: 6.00 Build 0)  -->
<svg version="1.1" id="Layer_1" xmlns="http://www.w3.org/2000/svg" xmlns:xlink="http://www.w3.org/1999/xlink" x="0px" y="0px"
	 viewBox="0 0 40 40" style="enable-background:new 0 0 40 40;" xml:space="preserve">
<style type="text/css">
	.st0{fill:#D0BD99;}
</style>
<g>
	<path class="st0" d="M28.1,34.6c-2.6,1.5-5.4,2.3-8.5,2.3s-5.9-0.8-8.5-2.3C8.6,33.1,6.5,31,5,28.4s-2.3-5.5-2.3-8.6s0.8-6,2.3-8.7
		c1.5-2.6,3.6-4.7,6.2-6.3c2.6-1.5,5.4-2.3,8.5-2.3s5.9,0.8,8.5,2.3c2.6,1.5,4.6,3.6,6.1,6.3c1.5,2.7,2.3,5.5,2.3,8.7
		s-0.8,6-2.3,8.6S30.7,33.1,28.1,34.6z M32.4,16.7h-7c0.6,1.1,0.9,2.2,0.9,3.4c0,1.8-0.6,3.4-1.9,4.7c-1.3,1.3-2.8,2-4.7,2
		c-1.8,0-3.3-0.7-4.6-2c-1.3-1.3-1.9-2.9-1.9-4.7c0-1.2,0.3-2.3,0.9-3.4h-0.1H7c-0.3,1.1-0.4,2.2-0.4,3.4c0,3.7,1.3,6.8,3.9,9.4
		c2.6,2.6,5.7,3.9,9.3,3.9c3.6,0,6.8-1.3,9.3-3.9c2.6-2.6,3.9-5.7,3.9-9.4C32.8,18.9,32.7,17.7,32.4,16.7z M19.7,14.2
		c-1.6,0-2.9,0.6-4.1,1.7c-1.1,1.1-1.7,2.5-1.7,4.1c0,1.6,0.6,3,1.7,4.1c1.1,1.1,2.5,1.7,4.1,1.7c1.6,0,3-0.6,4.1-1.7
		c1.1-1.1,1.7-2.5,1.7-4.1c0-1.6-0.6-3-1.7-4.1C22.6,14.8,21.3,14.2,19.7,14.2z M19.7,23.8c-1,0-1.9-0.4-2.6-1.1
		C16.3,22,16,21.1,16,20.1c0-1.1,0.4-1.9,1.1-2.7c0.7-0.7,1.6-1.1,2.6-1.1c1,0,1.9,0.4,2.6,1.1s1.1,1.6,1.1,2.7c0,1-0.4,1.9-1.1,2.7
		C21.6,23.5,20.7,23.8,19.7,23.8z M29.5,13.3v-1.7c0-0.2,0-0.4-0.1-0.6c-0.3-0.3-0.6-0.6-0.9-0.9C28.3,10,28.1,10,27.9,10h-1.7
		c-0.5,0-0.8,0.2-1.1,0.5c-0.3,0.3-0.5,0.7-0.5,1.2v1.7c0,0.5,0.2,0.9,0.5,1.2c0.3,0.3,0.7,0.5,1.1,0.5h1.7c0.5,0,0.8-0.2,1.1-0.5
		C29.4,14.2,29.5,13.8,29.5,13.3z"/>
</g>
</svg>
