<?xml version="1.0" encoding="utf-8"?>
<!-- Generator: Adobe Illustrator 21.0.0, SVG Export Plug-In . SVG Version: 6.00 Build 0)  -->
<svg version="1.1" id="Layer_1" xmlns="http://www.w3.org/2000/svg" xmlns:xlink="http://www.w3.org/1999/xlink" x="0px" y="0px"
	 viewBox="0 0 220 84" style="enable-background:new 0 0 220 84;" xml:space="preserve">
<style type="text/css">
	.st0{fill:#787878;}
</style>
<g>
	<path class="st0" d="M192.7,65.6c8.2-3,10.8-7.5,12.7-10.6c3.9-6.6,4-14.1,3.7-16.2l0-0.1c-0.2-1.8-0.7-3.6-1.1-3.6
		c-1.7-0.1-4,12.1-5.4,18.9c-0.1,0.7-0.2,1.4-0.6,2.1c-0.3,0.6-0.5,0.8-0.7,1c-0.2,0.3-0.6,0.5-0.5,0c3.1-16.4,5.1-25.2,6.9-28.8
		c0.2-0.4,0.4-0.6,0.6-0.7c-0.3-0.8-0.7-1.5-1.1-2.3c-9.7-17.6-35.5-21.9-49.9-14c-6.3,3.5-5.7,19.9,2.7,36.6
		c-0.8-4.7,0.3-8.8,2.6-13.6c3.1-6.5,13.1-15.9,20.7-13c6.4,2.5,3.9,12.6,3.9,12.6s4.5-6,8-6.1c1.9-0.1,5.1,1.3,1.2,7.6
		c-4.5,7.4-12.1,10.7-14.7,9.1c-2.3-1.4-2.4-4-2.5-4.7c-0.2-0.7-0.5-3.1-2.7-3.2c-2.2-0.2-6.1,2.8-5.6,4.2c0.4,1.2,3.3,0.2,4.6,1.1
		c1.3,0.8,1.8,2.1,1.4,4.3c-1.4,6.5-6.8,10.4-10.6,9.5c-0.9-0.2-1.8-0.6-2.6-1c1.2,1.9,2.4,3.6,3.6,5.3l1.1-1.9
		c0-0.1,0.1-0.1,0.2-0.1c2.2,0.1,4.9-0.8,6.1-1.8c-1,3.2-2.3,5.2-6.6,4.8c0,0.1,0.1,0.1,0.1,0.2c0.8,0.4,1.8,0.8,2.9,1.3
		c6.5,2.5,12.3-0.8,13.3-1.5c0.8-0.5,4.1-2.5,5.5-5.1c-0.5,0.1-1.1,0.1-1.7,0.1c-0.4,0-0.8-0.1-0.9-0.1c-0.6,0-4.1-0.6-1.8-5.7
		c0.4-0.9,1.9-4.5,4-3.7c0.6,0.2,2.2,0.8,2.7,3.3c0.1,0.4,0.1,0.8,0.2,1.3c2-1.3,3.6-3.2,4-5.5c0.4-2.1-0.1-3.2-0.7-3.3
		c-0.8-0.1-2.3,3.9-2.5,3.8c-0.2-0.1,0-0.7,0.2-1.3c1.4-4.7,3.4-6.5,4.1-6.5c0.7,0,1.6,2.2,1.6,5c0,4.5-2.7,9.8-6.8,11.8
		c-0.4,2.1-1.2,4-2.2,5.2c-2.8,3.6-8.8,7.2-16.5,5.5c-0.7-0.1-1.3-0.3-1.9-0.5c0.7,0.7,1.4,1.4,2,2.1c0.3,0.1,0.8,0.2,1.7,0.3
		C178.6,68.1,185.6,68.2,192.7,65.6 M195.2,24c-0.4,0.4-1.6,1.6-2,2c-0.1,0.1-0.2,0.1-0.3,0c-0.4-0.4-1.6-1.6-2-2
		c-0.1-0.1-0.1-0.2,0-0.3c0.4-0.4,1.6-1.6,2-2c0.1-0.1,0.2-0.1,0.3,0c0.4,0.4,1.6,1.6,2,2C195.3,23.8,195.3,23.9,195.2,24
		 M183.1,48.9c-0.4,0.4-1.6,1.6-2,2c-0.1,0.1-0.2,0.1-0.3,0c-0.4-0.4-1.6-1.6-2-2c-0.1-0.1-0.1-0.2,0-0.3c0.4-0.4,1.6-1.6,2-2
		c0.1-0.1,0.2-0.1,0.3,0c0.4,0.4,1.6,1.6,2,2C183.1,48.7,183.1,48.9,183.1,48.9 M194.9,56.4c0.4-0.4,1.6-1.6,2-2
		c0.1-0.1,0.2-0.1,0.3,0c0.4,0.4,1.6,1.6,2,2c0.1,0.1,0.1,0.2,0,0.3c-0.4,0.4-1.6,1.6-2,2c-0.1,0.1-0.2,0.1-0.3,0
		c-0.4-0.4-1.6-1.6-2-2C194.8,56.6,194.8,56.4,194.9,56.4 M179,32.8c1.7,0.9,1.4,3.3,2,5.4c0.6,2.1,2.3,2.3,2.3,2.3
		s3.6-6.9,0.5-12.4c-3-5.6-8-3.6-9.3-3c-1.7,0.8-8.2,5-11.4,13.8c-3.2,8.7,1.4,11.7,4.3,12.2c2.9,0.5,7.3-2.4,7.4-3.9
		c0.1-0.8-0.5-1.3-1.4-1.5c-0.9-0.2-3.2,0.3-4.7-1.5c-1.8-2.2,1.3-7,3.1-8.7C173.7,33.7,176.3,31.4,179,32.8 M188.7,48.3
		c-1.2-0.3-2.6,3.5-1.1,3.8c0.2,0,0.4,0.1,0.6,0c0.7,0,1.5-0.2,2.2-0.4C190.3,49.5,189.7,48.5,188.7,48.3 M193.7,68.9
		c-3.7,1.4-9.8,2.5-15.3,1c-1.2-0.3-2.1-0.7-2.8-0.9c6.5,5.7,12.8,8.1,16.7,6c5.1-2.8,9.7-7.7,13-13.6
		C202.1,65.2,197.5,67.5,193.7,68.9 M195.3,32.1c-1.1-1.2-4.6,0.5-6.8,3c-2,2.2-3.2,5.5-3.2,5.5c0.5-0.1,4-1.7,7-4.1
		C193.5,35.5,196.4,33.2,195.3,32.1"/>
	<path class="st0" d="M15.7,70.5c-0.1,0.2-0.3,0.4-0.5,0.6c-0.2,0.2-0.4,0.3-0.7,0.4c-0.3,0.1-0.5,0.1-0.8,0.1
		c-0.3,0-0.6-0.1-0.9-0.2c-0.3-0.1-0.5-0.3-0.7-0.5c-0.2-0.2-0.3-0.3-0.4-0.5c-0.1-0.2-0.1-0.4-0.2-0.6c0-0.2-0.1-0.4-0.1-0.7
		c0-0.2,0-0.5,0-0.8c0-0.3,0-0.6,0-0.8c0-0.2,0-0.5,0.1-0.7c0-0.2,0.1-0.4,0.2-0.6c0.1-0.2,0.2-0.3,0.4-0.5c0.2-0.2,0.5-0.4,0.7-0.5
		c0.3-0.1,0.6-0.2,0.9-0.2c0.6,0,1.1,0.2,1.5,0.5c0.4,0.3,0.7,0.8,0.8,1.4h-1c-0.1-0.3-0.2-0.6-0.4-0.8c-0.2-0.2-0.5-0.3-0.8-0.3
		c-0.2,0-0.4,0-0.5,0.1c-0.2,0.1-0.3,0.2-0.4,0.3c-0.1,0.1-0.1,0.2-0.2,0.3c-0.1,0.1-0.1,0.2-0.1,0.4c0,0.1,0,0.3-0.1,0.5
		c0,0.2,0,0.5,0,0.8c0,0.3,0,0.6,0,0.8c0,0.2,0,0.4,0.1,0.5c0,0.1,0.1,0.3,0.1,0.4c0,0.1,0.1,0.2,0.2,0.3c0.1,0.1,0.2,0.2,0.4,0.3
		c0.2,0.1,0.3,0.1,0.5,0.1c0.4,0,0.6-0.1,0.8-0.3c0.2-0.2,0.4-0.5,0.4-0.8h1C16,69.9,15.9,70.2,15.7,70.5"/>
	<path class="st0" d="M19.9,71.5v-0.5c-0.2,0.2-0.3,0.3-0.5,0.4c-0.2,0.1-0.4,0.1-0.6,0.1c-0.2,0-0.4,0-0.6-0.1
		c-0.2-0.1-0.3-0.2-0.5-0.3c-0.2-0.2-0.3-0.4-0.4-0.6c-0.1-0.2-0.1-0.4-0.1-0.7V67H18v2.7c0,0.3,0.1,0.6,0.3,0.8
		c0.2,0.2,0.4,0.2,0.6,0.2c0.1,0,0.2,0,0.4-0.1c0.1,0,0.2-0.1,0.3-0.2c0.1-0.1,0.1-0.2,0.2-0.3c0.1-0.1,0.1-0.3,0.1-0.4V67h0.9v4.5
		H19.9z"/>
	<path class="st0" d="M23.3,71.5c-0.2,0-0.4,0-0.6-0.1c-0.2-0.1-0.3-0.2-0.4-0.3c-0.1-0.1-0.2-0.2-0.2-0.4c0-0.2-0.1-0.3-0.1-0.5
		v-5.1H23v5c0,0.2,0,0.3,0.1,0.4c0.1,0.1,0.2,0.1,0.4,0.1h0.4v0.8H23.3z"/>
	<path class="st0" d="M26.2,71.5c-0.2,0-0.4,0-0.5-0.1c-0.2-0.1-0.3-0.2-0.4-0.3c-0.1-0.1-0.2-0.2-0.2-0.4c0-0.2-0.1-0.3-0.1-0.5
		v-2.5h-0.5v-0.7H25v-1.4h0.9v1.4h0.9v0.7h-0.9v2.4c0,0.2,0,0.3,0.1,0.4c0.1,0.1,0.2,0.1,0.4,0.1h0.4v0.8H26.2z"/>
	<path class="st0" d="M30.5,71.5v-0.5c-0.2,0.2-0.3,0.3-0.5,0.4c-0.2,0.1-0.4,0.1-0.6,0.1c-0.2,0-0.4,0-0.6-0.1
		c-0.2-0.1-0.3-0.2-0.5-0.3c-0.2-0.2-0.3-0.4-0.4-0.6c-0.1-0.2-0.1-0.4-0.1-0.7V67h0.9v2.7c0,0.3,0.1,0.6,0.3,0.8
		c0.2,0.2,0.4,0.2,0.6,0.2c0.1,0,0.2,0,0.4-0.1c0.1,0,0.2-0.1,0.3-0.2c0.1-0.1,0.1-0.2,0.2-0.3c0.1-0.1,0.1-0.3,0.1-0.4V67h0.9v4.5
		H30.5z"/>
	<path class="st0" d="M35.3,68.1c-0.1-0.1-0.2-0.2-0.3-0.2c-0.1-0.1-0.2-0.1-0.4-0.1c-0.2,0-0.5,0.1-0.6,0.3
		c-0.2,0.2-0.3,0.4-0.3,0.7v2.7h-0.9V67h0.9v0.5c0.1-0.2,0.3-0.3,0.5-0.4c0.2-0.1,0.4-0.2,0.7-0.2c0.2,0,0.4,0,0.6,0.1
		c0.2,0.1,0.3,0.2,0.5,0.3L35.3,68.1z"/>
	<path class="st0" d="M37,69.5c0,0.4,0.1,0.7,0.3,0.9c0.2,0.2,0.5,0.3,0.8,0.3c0.3,0,0.5,0,0.6-0.1c0.2-0.1,0.3-0.2,0.5-0.3l0.6,0.5
		c-0.1,0.1-0.2,0.2-0.3,0.3c-0.1,0.1-0.2,0.2-0.4,0.2c-0.1,0.1-0.3,0.1-0.4,0.1c-0.2,0-0.3,0-0.5,0c-0.3,0-0.5,0-0.8-0.1
		c-0.2-0.1-0.5-0.2-0.6-0.4c-0.2-0.2-0.3-0.4-0.4-0.7c-0.1-0.3-0.2-0.7-0.2-1.1c0-0.7,0.2-1.3,0.5-1.7c0.3-0.4,0.8-0.6,1.4-0.6
		c0.3,0,0.6,0.1,0.8,0.2c0.2,0.1,0.4,0.3,0.6,0.4c0.2,0.2,0.3,0.4,0.4,0.7c0.1,0.3,0.1,0.6,0.1,0.9v0.4H37z M39,68.6
		c0-0.1,0-0.2-0.1-0.3c-0.1-0.2-0.2-0.3-0.3-0.4c-0.2-0.1-0.3-0.2-0.5-0.2s-0.4,0.1-0.6,0.2c-0.2,0.1-0.3,0.2-0.3,0.4
		c0,0.1-0.1,0.2-0.1,0.3c0,0.1,0,0.2,0,0.3h2C39.1,68.8,39,68.7,39,68.6"/>
	<path class="st0" d="M47.4,71.5l-0.5-0.6c-0.1,0.1-0.2,0.1-0.3,0.2c-0.1,0.1-0.2,0.2-0.4,0.2c-0.1,0.1-0.3,0.1-0.5,0.2
		c-0.2,0-0.4,0.1-0.6,0.1c-0.7,0-1.2-0.2-1.5-0.5c-0.3-0.3-0.5-0.8-0.5-1.4c0-0.2,0-0.4,0.1-0.6c0.1-0.2,0.2-0.3,0.3-0.5
		c0.1-0.1,0.3-0.3,0.4-0.4c0.1-0.1,0.3-0.2,0.5-0.3c-0.1-0.1-0.1-0.2-0.2-0.3c-0.1-0.1-0.1-0.2-0.2-0.3c-0.1-0.1-0.1-0.2-0.2-0.4
		c0-0.1-0.1-0.3-0.1-0.4c0-0.2,0-0.4,0.1-0.6c0.1-0.2,0.2-0.3,0.3-0.4c0.1-0.1,0.3-0.2,0.5-0.3c0.2-0.1,0.4-0.1,0.6-0.1
		c0.2,0,0.4,0,0.6,0.1c0.2,0.1,0.3,0.2,0.5,0.3c0.1,0.1,0.2,0.3,0.3,0.4c0.1,0.2,0.1,0.4,0.1,0.6c0,0.2-0.1,0.5-0.2,0.6
		c-0.1,0.2-0.3,0.3-0.5,0.5c0,0,0,0-0.1,0.1c-0.1,0-0.1,0.1-0.2,0.1c-0.1,0.1-0.1,0.1-0.2,0.1l1.3,1.6c0.1-0.2,0.2-0.3,0.3-0.5
		c0.1-0.2,0.1-0.4,0.1-0.7h0.9c0,0.4-0.1,0.8-0.2,1.1c-0.1,0.3-0.3,0.6-0.5,0.8l1.1,1.3H47.4z M44.8,68.5c-0.1,0.1-0.2,0.2-0.3,0.2
		c-0.1,0.1-0.2,0.2-0.3,0.3c-0.1,0.1-0.1,0.2-0.2,0.3c0,0.1-0.1,0.2-0.1,0.4c0,0.3,0.1,0.6,0.3,0.8c0.2,0.2,0.5,0.3,0.8,0.3
		c0.2,0,0.4,0,0.6-0.1c0.2-0.1,0.4-0.2,0.6-0.4L44.8,68.5z M45.7,66.1c-0.1-0.1-0.3-0.2-0.5-0.2c-0.2,0-0.3,0.1-0.5,0.2
		c-0.1,0.1-0.2,0.3-0.2,0.4c0,0.1,0,0.3,0.1,0.4c0.1,0.1,0.2,0.3,0.4,0.5c0,0,0.1,0,0.1-0.1c0,0,0.1-0.1,0.1-0.1c0,0,0.1,0,0.1,0
		c0.1-0.1,0.2-0.2,0.3-0.3c0.1-0.1,0.1-0.2,0.1-0.4C45.8,66.4,45.8,66.2,45.7,66.1"/>
	<polygon class="st0" points="53.9,66.1 53.9,71.5 53,71.5 53,66.1 51.2,66.1 51.2,65.2 55.7,65.2 55.7,66.1 	"/>
	<path class="st0" d="M59.4,70.3c-0.1,0.3-0.2,0.5-0.4,0.8c-0.1,0.2-0.3,0.3-0.6,0.4c-0.2,0.1-0.5,0.2-0.8,0.2
		c-0.3,0-0.6-0.1-0.8-0.2c-0.2-0.1-0.4-0.2-0.5-0.4c-0.2-0.2-0.4-0.5-0.4-0.8c-0.1-0.3-0.1-0.6-0.1-1c0-0.4,0-0.7,0.1-1
		c0.1-0.3,0.2-0.5,0.4-0.8c0.1-0.2,0.3-0.3,0.5-0.4c0.2-0.1,0.5-0.2,0.8-0.2c0.3,0,0.6,0.1,0.8,0.2c0.2,0.1,0.4,0.2,0.6,0.4
		c0.2,0.2,0.4,0.5,0.4,0.8c0.1,0.3,0.1,0.6,0.1,1C59.5,69.6,59.5,70,59.4,70.3 M58.6,68.6c0-0.2-0.1-0.4-0.3-0.5
		c-0.2-0.2-0.4-0.3-0.7-0.3c-0.3,0-0.5,0.1-0.7,0.3c-0.1,0.1-0.2,0.3-0.3,0.5c0,0.2-0.1,0.5-0.1,0.7c0,0.2,0,0.5,0.1,0.7
		c0,0.2,0.1,0.4,0.3,0.5c0.2,0.2,0.4,0.3,0.7,0.3c0.3,0,0.5-0.1,0.7-0.3c0.1-0.1,0.2-0.3,0.3-0.5c0-0.2,0.1-0.5,0.1-0.7
		C58.6,69,58.6,68.8,58.6,68.6"/>
	<path class="st0" d="M63.4,71.5v-0.5c-0.2,0.2-0.3,0.3-0.5,0.4c-0.2,0.1-0.4,0.1-0.6,0.1c-0.2,0-0.4,0-0.6-0.1
		c-0.2-0.1-0.3-0.2-0.5-0.3c-0.2-0.2-0.3-0.4-0.4-0.6c-0.1-0.2-0.1-0.4-0.1-0.7V67h0.9v2.7c0,0.3,0.1,0.6,0.3,0.8
		c0.2,0.2,0.4,0.2,0.6,0.2c0.1,0,0.2,0,0.4-0.1c0.1,0,0.2-0.1,0.3-0.2c0.1-0.1,0.1-0.2,0.2-0.3c0.1-0.1,0.1-0.3,0.1-0.4V67h0.9v4.5
		H63.4z"/>
	<path class="st0" d="M68.2,68.1c-0.1-0.1-0.2-0.2-0.3-0.2c-0.1-0.1-0.2-0.1-0.4-0.1c-0.2,0-0.5,0.1-0.6,0.3
		c-0.2,0.2-0.3,0.4-0.3,0.7v2.7h-0.9V67h0.9v0.5c0.1-0.2,0.3-0.3,0.5-0.4c0.2-0.1,0.4-0.2,0.7-0.2c0.2,0,0.4,0,0.6,0.1
		c0.2,0.1,0.3,0.2,0.5,0.3L68.2,68.1z"/>
	<path class="st0" d="M69.5,65.2h1v1h-1V65.2z M69.5,67h0.9v4.5h-0.9V67z"/>
	<path class="st0" d="M75,70.8c-0.1,0.2-0.2,0.3-0.4,0.4c-0.2,0.1-0.4,0.2-0.6,0.3c-0.2,0.1-0.5,0.1-0.7,0.1c-0.4,0-0.7,0-1-0.1
		c-0.3-0.1-0.6-0.3-0.9-0.5l0.6-0.6c0.2,0.2,0.4,0.3,0.6,0.4c0.2,0.1,0.5,0.1,0.7,0.1c0.3,0,0.5-0.1,0.7-0.2
		c0.2-0.1,0.3-0.3,0.3-0.5c0-0.2,0-0.3-0.1-0.4c-0.1-0.1-0.2-0.1-0.5-0.2l-0.7-0.1c-0.4,0-0.8-0.2-1-0.3c-0.2-0.2-0.3-0.5-0.3-0.9
		c0-0.2,0-0.4,0.1-0.6c0.1-0.2,0.2-0.3,0.4-0.4c0.2-0.1,0.3-0.2,0.5-0.3c0.2-0.1,0.4-0.1,0.7-0.1c0.3,0,0.6,0,0.9,0.1
		c0.3,0.1,0.5,0.2,0.7,0.4L74.4,68c-0.1-0.1-0.3-0.2-0.5-0.3c-0.2,0-0.4-0.1-0.6-0.1c-0.3,0-0.5,0.1-0.6,0.2
		c-0.1,0.1-0.2,0.2-0.2,0.4c0,0.1,0,0.2,0.1,0.3c0.1,0.1,0.2,0.1,0.5,0.2l0.7,0.1c0.4,0,0.8,0.2,1,0.4c0.2,0.2,0.3,0.5,0.3,0.9
		C75.1,70.4,75.1,70.6,75,70.8"/>
	<path class="st0" d="M81.7,71.5v-2.7c0-0.3-0.1-0.6-0.3-0.8c-0.2-0.2-0.4-0.2-0.6-0.2c-0.1,0-0.2,0-0.4,0.1c-0.1,0-0.2,0.1-0.3,0.2
		c-0.1,0.1-0.2,0.2-0.2,0.3c-0.1,0.1-0.1,0.3-0.1,0.4v2.8h-0.9v-2.7c0-0.3-0.1-0.6-0.3-0.8c-0.2-0.2-0.4-0.2-0.6-0.2
		s-0.5,0.1-0.7,0.2c-0.2,0.2-0.3,0.4-0.3,0.8v2.7h-0.9V67h0.9v0.5c0.2-0.2,0.3-0.3,0.5-0.4c0.2-0.1,0.4-0.1,0.7-0.1
		c0.6,0,1,0.2,1.3,0.7c0.4-0.4,0.8-0.7,1.4-0.7c0.2,0,0.4,0,0.6,0.1c0.2,0.1,0.4,0.2,0.5,0.3c0.2,0.2,0.3,0.4,0.4,0.6
		c0.1,0.2,0.1,0.4,0.1,0.7v2.9H81.7z"/>
	<path class="st0" d="M93,66.8c0.2,0,0.5-0.2,0.5-0.5c0-0.2-0.2-0.5-0.5-0.5c-0.2,0-0.5,0.2-0.5,0.5C92.6,66.5,92.8,66.8,93,66.8"/>
	<path class="st0" d="M91.8,66.8c0.3,0,0.5-0.2,0.5-0.5c0-0.2-0.2-0.5-0.5-0.5c-0.2,0-0.5,0.2-0.5,0.5
		C91.4,66.5,91.6,66.8,91.8,66.8"/>
	<path class="st0" d="M97.6,67.5c-0.7,0-1.4,0.3-2,0.9l0.6,0.6c0.4-0.5,0.9-0.7,1.4-0.7c0.6,0,1,0.2,1.2,0.7
		c0.1,0.3,0.2,0.8,0.2,1.5v0.3h-3.6h-0.2h-0.3c-0.6,0-0.9-0.3-0.9-0.9v-2.4h-1.8c-1.1,0-1.7,0.7-1.7,2c0,1.4,0.6,2,1.7,2
		c0.7,0,1.1-0.2,1.3-0.6c0.2,0.4,0.6,0.6,1.3,0.6h0.4h0.2h4.5v-1c0-0.9-0.1-1.5-0.3-2C99.1,67.9,98.5,67.5,97.6,67.5 M93,69.5
		c0,0.4-0.1,0.8-0.2,0.9c-0.1,0.2-0.4,0.4-0.7,0.4c-0.3,0-0.6-0.1-0.7-0.4c-0.1-0.2-0.2-0.5-0.2-0.9c0-0.4,0.1-0.8,0.2-0.9
		c0.1-0.2,0.4-0.3,0.7-0.3H93V69.5z"/>
	<path class="st0" d="M103.8,72.3c-0.3,0-0.5,0.2-0.5,0.5c0,0.2,0.2,0.5,0.5,0.5c0.2,0,0.5-0.2,0.5-0.5
		C104.2,72.5,104,72.3,103.8,72.3"/>
	<path class="st0" d="M104.9,72.3c-0.2,0-0.5,0.2-0.5,0.5c0,0.2,0.2,0.5,0.5,0.5c0.2,0,0.5-0.2,0.5-0.5
		C105.4,72.5,105.2,72.3,104.9,72.3"/>
	<path class="st0" d="M115.2,69.9c0,0.6-0.3,0.9-0.9,0.9h-0.3h-0.2H113v-3.2l-0.8,0.2v3h-1.8v-2.9l-0.8,0.2v2.6h-1.7v-2.5l-0.8,0.2
		v2.2l-1.3,0c-0.6,0-0.9-0.3-0.9-0.9v-2.4l-0.8,0.2v2.1c0,0.6-0.3,0.9-0.9,0.9h-0.4l-0.8,0c-0.3,0-0.4-0.1-0.4-0.4v-4.5l-0.8,0.3
		v4.3c0,0.7,0.4,1.1,1.2,1.1h0.7h0.2h0.4c0.5,0,1-0.2,1.3-0.5c0.3,0.3,0.7,0.5,1.2,0.5h0.3h0.2h7.7h0.2h0.4c0.5,0,0.9-0.1,1.2-0.4
		c0.3-0.3,0.5-0.7,0.5-1.1v-4.1l-0.8,0.2V69.9z"/>
	<polygon class="st0" points="116.8,71.5 117.6,71.5 117.6,65.8 116.8,66.1 	"/>
	<path class="st0" d="M120.2,67.7c-0.6,0-1.1,0.2-1.4,0.6c-0.2,0.3-0.4,0.8-0.4,1.4s0.1,1,0.4,1.3c0.3,0.4,0.8,0.6,1.4,0.6
		c0.3,0,0.6-0.1,0.8-0.2c-0.1,0.7-0.4,1-1.1,1.1c-0.4,0-0.9-0.1-1.4-0.3l0.4,0.8c0.2,0.1,0.6,0.2,1,0.2c0.6,0,1.1-0.2,1.4-0.6
		c0.3-0.4,0.5-0.8,0.5-1.4c0-0.1,0-0.3,0-0.6c0-0.3,0-0.5,0-0.6c0-0.7-0.1-1.2-0.3-1.6C121.3,67.9,120.8,67.7,120.2,67.7
		 M120.2,70.9c-0.6,0-0.9-0.4-0.9-1.2c0-0.8,0.3-1.3,0.9-1.3c0.6,0,0.9,0.4,0.9,1.3C121,70.5,120.8,70.9,120.2,70.9"/>
	<path class="st0" d="M127.2,66.8c0.2,0,0.5-0.2,0.5-0.5c0-0.2-0.2-0.5-0.5-0.5c-0.2,0-0.5,0.2-0.5,0.5
		C126.7,66.5,126.9,66.8,127.2,66.8"/>
	<path class="st0" d="M126,66.8c0.3,0,0.5-0.2,0.5-0.5c0-0.2-0.2-0.5-0.5-0.5c-0.2,0-0.5,0.2-0.5,0.5
		C125.5,66.5,125.7,66.8,126,66.8"/>
	<path class="st0" d="M131.6,66.8c0.2,0,0.5-0.2,0.5-0.5c0-0.2-0.2-0.5-0.5-0.5c-0.2,0-0.5,0.2-0.5,0.5
		C131.1,66.5,131.4,66.8,131.6,66.8"/>
	<path class="st0" d="M131.6,67.4c-1.1,0-1.7,0.6-1.7,1.4c0,0.5,0.1,0.8,0.3,1c0.2,0.3,0.6,0.4,1.2,0.4h1.2c0,0.3-0.1,0.5-0.3,0.5
		c-0.1,0-0.3,0.1-0.6,0.1l-2.7,0c-0.6,0-0.9-0.3-0.9-0.9v-2.4h-1.8c-1.1,0-1.7,0.7-1.7,2c0,1.4,0.6,2,1.7,2c0.7,0,1.1-0.2,1.3-0.6
		c0.2,0.4,0.6,0.6,1.3,0.6h0.4h0.2h2.3c0.5,0,0.9-0.1,1.2-0.3c0.3-0.2,0.5-0.6,0.5-1.1v-1.4c0-0.4-0.1-0.7-0.4-1
		C132.7,67.5,132.2,67.4,131.6,67.4 M127.2,69.5c0,0.4-0.1,0.8-0.2,0.9c-0.1,0.2-0.4,0.4-0.7,0.4c-0.3,0-0.6-0.1-0.7-0.4
		c-0.1-0.2-0.2-0.5-0.2-0.9c0-0.4,0.1-0.8,0.2-0.9c0.1-0.2,0.4-0.3,0.7-0.3h0.9V69.5z M132.5,69.5h-1c-0.4,0-0.6,0-0.7-0.1
		c-0.1-0.1-0.1-0.3-0.1-0.6c0-0.5,0.3-0.7,0.9-0.7c0.6,0,0.9,0.2,0.9,0.7V69.5z"/>
	<path class="st0" d="M139.1,66.8c0.2,0,0.5-0.2,0.5-0.5c0-0.2-0.2-0.5-0.5-0.5c-0.2,0-0.5,0.2-0.5,0.5
		C138.6,66.5,138.8,66.8,139.1,66.8"/>
	<path class="st0" d="M137.9,66.8c0.3,0,0.5-0.2,0.5-0.5c0-0.2-0.2-0.5-0.5-0.5c-0.2,0-0.5,0.2-0.5,0.5
		C137.4,66.5,137.7,66.8,137.9,66.8"/>
	<path class="st0" d="M142.6,65.7c0.2,0,0.5-0.2,0.5-0.5c0-0.2-0.2-0.5-0.5-0.5c-0.2,0-0.5,0.2-0.5,0.5
		C142.2,65.5,142.4,65.7,142.6,65.7"/>
	<path class="st0" d="M142.8,66.3c0,0.2,0.2,0.5,0.5,0.5c0.2,0,0.5-0.2,0.5-0.5c0-0.2-0.2-0.5-0.5-0.5C143,65.8,142.8,66,142.8,66.3
		"/>
	<path class="st0" d="M142,66.8c0.2,0,0.5-0.2,0.5-0.5c0-0.2-0.2-0.5-0.5-0.5c-0.3,0-0.5,0.2-0.5,0.5
		C141.6,66.5,141.8,66.8,142,66.8"/>
	<path class="st0" d="M149.1,66.1v3.8c0,0.6-0.3,0.9-0.9,0.9h-0.8c-0.6,0-0.9-0.3-0.9-0.9v-4.1l-0.8,0.3v3.8c0,0.6-0.3,0.9-0.9,0.9
		h-1.1c-0.5,0-0.7-0.3-0.7-0.9v-2.4l-0.8,0.2v2.1c0,0.6-0.3,0.8-0.8,0.9h-1.7c0.4-0.4,0.5-0.8,0.6-1.2c0-0.6-0.1-1-0.4-1.4
		c-0.3-0.4-0.8-0.6-1.4-0.6c-0.6,0-1.1,0.2-1.4,0.6c-0.2,0.4-0.4,0.8-0.3,1.4c0,0.4,0.2,0.8,0.5,1.2h-1.9c-0.3,0-0.4-0.1-0.4-0.4
		v-4.5l-0.8,0.3v4.3c0,0.7,0.4,1.1,1.2,1.1h0.7h0.2h1.7c0.2,0,0.4,0,0.5-0.1c0.2,0,0.4,0.1,0.5,0.1h1.7h0.2h0.4c0.5,0,1-0.2,1.3-0.5
		c0.3,0.3,0.7,0.5,1.2,0.5h0.3h0.2h0.5c0.5,0,1-0.2,1.2-0.5c0.3,0.3,0.7,0.5,1.2,0.5h0.4h0.2h0.3c0.5,0,0.9-0.1,1.2-0.4
		c0.3-0.3,0.5-0.7,0.5-1.1v-4.1L149.1,66.1z M138.5,70.8C138.5,70.8,138.5,70.8,138.5,70.8L138.5,70.8
		C138.5,70.8,138.5,70.8,138.5,70.8 M139.2,70.2c-0.2,0.3-0.4,0.5-0.7,0.6h-0.1c-0.3-0.1-0.5-0.3-0.7-0.6c-0.1-0.3-0.2-0.5-0.2-0.8
		c0-0.6,0.3-1.1,0.9-1.1c0.6,0,0.9,0.5,0.9,1.1C139.5,69.7,139.4,70,139.2,70.2"/>
	<path class="st0" d="M151.7,46.1c0.1,0,0.1-0.2,0-0.2c-0.3-0.3-1.2-1.2-1.5-1.5c-0.1-0.1-0.1-0.1-0.2,0c-0.3,0.3-1.2,1.2-1.5,1.5
		c0,0.1,0,0.1,0,0.2c0.3,0.3,1.2,1.2,1.5,1.5c0.1,0,0.1,0,0.2,0h0C150.5,47.3,151.3,46.4,151.7,46.1"/>
	<path class="st0" d="M42.7,36.5c0,0,0.1-0.1,0.2-0.1c0.1,0,0,0.2,0,0.2c-0.2,1.3-0.8,5.9-1.1,11.9c0,1-0.1,2-0.1,3l0,0.3l0.2-0.3
		c0.8-1.1,2.3-1.7,4-1.7c1.1,0,3.7,0.4,4.3,3.7c0.2,1.2-0.1,3.9-2.5,5.9c-0.8,0.6-2.8,1.6-5.1,1.6c-2,0-4-0.1-5.3-1.2
		c-0.7-0.6-1.3-1.4-1.5-3.7c0-0.2,0-0.4,0-0.6c0-0.3,0-0.4,0-0.6c0-0.1,0-0.2,0.1-0.2c0,0,0.1,0.1,0.1,0.2c0,0.1,0.1,0.3,0.2,0.4
		c1.1,2.2,4.9,2.5,6.2,2.5c2.7,0,3.8-0.8,4.6-2c0.5-0.7,0.6-1.5,0.5-2.2c-0.2-1.1-1-1.6-2.3-1.6c-1.9,0-3.4,1.5-3.4,3.5l0,0.3l0,0.6
		c0,0.2,0,0.2-0.1,0.2c-0.1,0-0.1,0-0.2-0.1L39,55.2c-0.1,0-0.2-0.1-0.3-0.2c-0.1-0.1-0.1-0.2-0.1-0.3c0-2.1,0.1-4.5,0.1-6
		c0.2-3,0.4-6,0.7-8.9c0-0.2,0.1-0.4,0.1-0.5c0.1-0.1,0.2-0.3,0.3-0.3C39.9,38.9,42.7,36.5,42.7,36.5"/>
	<path class="st0" d="M146.9,51.3c0.5-0.4,2.2-1.9,2.8-2.4c0.1-0.1,0.1-0.1,0.2-0.1c0,0,0,0.1,0,0.2c-0.1,2.2-0.2,4.4-0.2,6.5v0.3
		v1.9c0.1,1,0.2,1.5,0.5,1.8c0.3,0.3,1,0.5,2.2,0.4l0.1,0c0.1,0,0.2,0,0.2,0c0,0.1-0.2,0.2-0.2,0.2l0,0c-0.9,0.5-1.8,0.7-2.5,0.8
		l-0.4,0c-0.7,0-1.4-0.3-1.9-0.8l-0.2-0.2c-0.1-0.1-0.2-0.2-0.2-0.3c-0.4-0.5-0.6-0.9-0.6-1.7c0-0.8,0-4.9,0-6.1c0-0.1,0-0.2,0-0.3
		C146.8,51.3,146.8,51.3,146.9,51.3"/>
	<path class="st0" d="M145.4,53.6c-0.6-3.3-3.2-3.7-4.3-3.7c-1.7,0-3.2,0.6-4,1.7l-0.2,0.3l0-0.3c0-1,0.1-2,0.1-3
		c0.3-6,0.9-10.6,1.1-11.9c0,0,0-0.2,0-0.2c-0.1-0.1-0.2,0.1-0.2,0.1c0,0-2.8,2.3-2.8,2.3c-0.1,0.1-0.3,0.3-0.3,0.3
		c-0.1,0.1-0.1,0.3-0.1,0.5c-0.3,2.9-0.6,5.8-0.7,8.9c-0.1,1.5-0.1,3.9-0.2,6c0,0.1,0,0.2,0.1,0.3c0.1,0.1,0.2,0.2,0.3,0.2l2.4,1.4
		c0.1,0,0.2,0.1,0.2,0.1c0,0,0.1,0,0.1-0.2v-0.6l0-0.3c0-2,1.5-3.5,3.4-3.5c1.3,0,2.1,0.5,2.3,1.6c0.1,0.7,0,1.5-0.5,2.2
		c-0.8,1.2-1.9,2-4.6,2c-1.3,0-5.1-0.3-6.2-2.5c-0.1-0.1-0.1-0.2-0.1-0.3c0-0.1-0.1-0.2-0.1-0.2c-0.1,0-0.1,0.1-0.1,0.2
		c0,0.1-0.1,0.2-0.1,0.3c-0.1,0.6-0.4,1.5-0.9,1.9c-0.5,0.4-1.6,0.5-2.5,0.4c-0.4-0.1-1.2-0.2-1.9-0.5l-0.1,0l0-0.1
		c0.8-1.9,0.8-4.1,0.1-5.2c-0.7-1.2-2-1.9-3.3-2.1c-1.4-0.1-3.4,0.1-4.4,0.9c-0.6,0.4-0.8,1.5-0.8,2.2c0,0.1,0,0.3,0,0.3
		c0,0,0.1-0.1,0.2-0.1c0.5-0.4,1.3-0.9,2.2-1.1c1.1-0.2,2,0,2.5,0.3c1.2,0.7,1.4,1.8,1.5,2.2c0,0.4,0,0.7-0.1,1.1l0,0.2l-0.1-0.1
		c-1.6-1.5-2.6-1.9-4-1.7c-0.7,0.1-1.4,0.5-2,1.2c-0.4,0.3-1.2,1.6-2.1,1.9c-1.7,0.7-8.9,0.4-9.9-0.3c-0.6-0.4-0.5-1.3-0.5-1.7v0
		c0-0.2,0.1-2.2,0.2-3.3c0-0.8-0.1-1.3-0.4-1.6c-0.3-0.3-0.9-0.4-1.2-0.4c-0.3,0-0.9,0.1-1.6,0.8c-2.1,1.8-3.1,3.2-3.5,3.9
		c-0.1,0.1-0.1,0.2-0.2,0.2c-0.1,0-0.1-0.1-0.1-0.2c0-1.5,0.2-5.7,0.2-5.9c0.3-6,0.9-10.7,1.1-11.9l0,0c0-0.1,0-0.2,0-0.2
		c-0.1,0-0.2,0-0.2,0c0,0-2.9,2.4-2.9,2.4c-0.1,0.1-0.3,0.3-0.3,0.3c-0.1,0.1-0.1,0.3-0.1,0.5l0,0.1c-0.3,2.2-0.6,5.2-0.7,8.8
		c-0.2,5.7-0.2,8.5-0.1,11.4c0,0.8,0.4,1,0.6,1c0.1,0,0.8,0.2,1-0.3c1.6-3.1,2.9-4.9,5.1-7.1c0.1-0.1,0.2-0.2,0.4-0.2
		c0.2,0,0.2,0.2,0.1,0.4l-0.1,1c0,0.4,0,0.8-0.1,1.7c0,0.9,0,3.1,1.5,3.9c1.5,0.8,9.1,0.7,9.1,0.7c2.4,0,2.8-0.5,3.3-1
		c0.2-0.3,0.4-0.6,0.5-0.9c0.5,1.2,1.7,1.8,1.8,1.8c0,0,0.7,0.3,1.7,0.3c0.8,0,1.8-0.2,2.7-0.7c0.3-0.1,0.6-0.4,1-0.7l0.1-0.1
		l0.1,0.1c0.3,0.3,0.7,0.5,1.2,0.8c1.2,0.6,3.3,0.6,3.3,0.6c2.1-0.1,2.9-1,3-1.6c0-0.1,0.1-0.3,0.1-0.4c0.3,0.6,0.6,1,1,1.3
		c1.3,1.1,3.3,1.2,5.3,1.2c2.3,0,4.4-1,5.1-1.6C145.3,57.5,145.6,54.8,145.4,53.6 M122.1,57.7c-0.7,0.6-1.6,0.8-2.5,0.7
		c-1.1-0.1-1.7-0.6-1.7-1.2c0-0.7,0.5-1.1,1.5-1.1c0.7-0.1,1.6,0.5,2.7,1.5V57.7L122.1,57.7z"/>
	<path class="st0" d="M91.1,42.7c-1.2-1.8-2.8-3-5.1-3.9c-1.1-0.4-2.5-0.7-4.2-0.7c0,0-2,0-3.1-0.1c-0.7-0.1-1.1-0.3-1.5-0.5
		c-0.2-0.1-0.2-0.2-0.3-0.2c-0.1,0-0.1,0.3-0.1,0.6c-0.2,2-0.7,8.6-0.8,10.3c-0.1,1.5-0.1,3.9-0.1,6c0,0.2,0,0.2,0.1,0.4
		c0.1,0.1,0.2,0.2,0.3,0.2l2.4,1.4c0.1,0,0.2,0.1,0.2,0.1c0,0,0.1-0.1,0.1-0.3v-0.5l0-0.3l0-3.6l0-0.5c0-0.9,0-2,0.1-2.9
		c0.1-1.5,0.2-3,0.3-4.5h0c0-0.4,0.1-1,0.3-1.4c0.4-0.6,0.8-0.7,1.2-0.8c0.5-0.1,1.7-0.2,3.6,0.5c1.4,0.6,2.7,1.5,3.4,2.5
		c0.5,0.8,1,1.8,1.2,2.7c0.2,1.2,0.3,4-0.9,6.3c-1,1.9-2.7,3.2-5,3.8c-0.7,0.2-1.8,0.3-3.1,0.3c-1.3,0-6.3-0.6-7.3-3.2
		c-0.1-0.3-0.1-0.4-0.3-0.4c-0.1,0-0.2,0.1-0.2,0.4c-0.1,0.7-0.3,1.4-0.5,1.7c-0.3,0.5-0.6,1.5-4.4,1.5c-2.7-0.1-3.8-0.1-4.8-0.7
		c-0.4-0.3-0.5-0.8-0.5-1.2c0-0.2,0.3-5.1,0.3-5.7c0-0.2,0-0.3-0.1-0.4c-0.1,0-0.2,0.1-0.3,0.2c-0.5,0.4-1.3,1.1-1.9,1.6
		c-0.2,0.2-0.3,0.2-0.4,0.4c-0.1,0.1-0.1,0.3-0.1,0.5c-0.1,1.6-0.2,4.9-0.2,4.9l0,0c-0.5,0.3-1.6,0.5-2.1,0.6c-0.5,0-2.3,0-3.5-0.7
		c-0.4-0.2-0.6-0.6-0.7-1c-0.1-0.5,0-1,0.2-1.4c0.4-0.6,2-2.9,2-2.9c0.2-0.3,0.2-0.3,0.1-0.5c0-0.2-0.2-0.2-0.3-0.3
		c-0.2-0.2-0.6-0.4-1-0.7c0,0-0.3-0.2-0.4-0.2c-0.1-0.1-0.3-0.1-0.4,0c-0.5,0.5-2.2,3.1-2.1,6c0.1,1.7,0.7,2.9,1.5,3.6
		c0.8,0.7,2.2,1.5,4.4,1.4c1.1-0.1,2.1-0.5,2.9-1.2l0.1-0.1l0.1,0.1c0.2,0.2,0.4,0.4,0.6,0.5c1.5,0.8,5,0.9,6.8,0.8
		c3.9,0,5.1-1.2,5.5-2.3c0.2,0.4,0.5,0.7,0.8,1c1.5,1.3,4.5,1.6,6.2,1.6c2.5,0,4.9-0.3,6.3-0.9c1.3-0.5,2.9-1.3,4.4-3.2
		c1.5-1.9,2.3-4.6,2.2-7.6C93.1,46.7,92.6,45,91.1,42.7"/>
	<path class="st0" d="M36.5,53.9c0.4-0.6,1-1.8,0.2-3.6c-0.8-1.8-2.6-2.7-5.1-2.5c-0.6-2.5-2.4-9.9-2.4-10.1c0-0.1-0.2-0.5-0.4-0.6
		c-0.2-0.1-0.5-0.1-0.7-0.1c-0.3,0-1.1,0-1.5,0.4c-0.4,0.4-0.6,0.7-0.9,1.4c-0.5,1.1-1.2,2.7-2.2,4.9c-0.7,1.4-1.4,3-2.3,4.8
		c-1.1,2.2-3.8,7.5-4.1,8c-0.2,0.4-0.5,0.6-0.8,0.9c-0.4,0.2-1.3,0.3-1.9,0.1c-0.8-0.4-1.1-0.8-1.3-1.4C13,55.7,13,55.2,13,55.2
		c0.1-0.9,0.8-1.6,0.8-1.7c0.1-0.1,0.1-0.1,0.1-0.1c0-0.1-0.1-0.1-0.2,0c-1.1,0.3-2.2,1.4-2.3,2.8c0,0.1,0,0.2,0,0.3
		c0,1.4,0.9,2.8,2.2,3.5c0.7,0.4,3.6,1.6,5.2-0.2c0.6-0.6,1.2-1.6,2-3.3c0.8-1.6,2.8-5.7,3.1-6.4c0.3-0.7,2.2-4.6,3.2-6.5l0.1-0.3
		l1.1,5.4c-2.3,0.9-3.3,2.2-3.8,4.1c-0.5,2,1.4,4.9,6.2,7.1c0.4,0.2,2.5,1,2.9,1c0.7,0.1,0.8-0.2,0.8-0.4c0.1-0.2-0.1-0.9-0.2-1.3
		c-0.1-0.6-1.5-6-2-8.3c1.4-0.1,2.5,0.2,3.2,1c0.6,0.7,0.7,1.5,0.7,1.9c0,0.3,0,0.3,0,0.3C36.2,54.2,36.3,54.1,36.5,53.9 M29.9,55.9
		L29.9,55.9c-0.1,0-1.5-0.8-2.3-1.6c-0.5-0.6-0.9-1.2,0-2.1c0.3-0.2,0.7-0.5,1.4-0.7C29.3,53.1,29.9,55.9,29.9,55.9"/>
	<path class="st0" d="M55.3,47.2c0.3-0.3,0.9-0.9,1.1-1.2c0.1-0.1,0.1-0.1,0.2-0.1c0.1,0,0.1,0,0.2,0.1c0.4,0.3,1,0.8,1.2,1
		c0.2,0.2,0.7,0.7,0.7,1.6c0,0.2,0,0.4,0,0.6c-0.1,0.7-0.4,1.4-0.6,1.7c0,0.1-0.1,0.2-0.2,0.2c-0.1,0-0.1-0.1,0-0.3
		c0-0.1,0-0.1,0-0.2c0-0.5-0.2-1.1-0.6-1.5c-0.4-0.4-1.4-1.1-1.8-1.5c-0.1-0.1-0.1-0.1-0.1-0.2C55.1,47.3,55.2,47.3,55.3,47.2"/>
	<path class="st0" d="M111.5,53.2c0.1-0.1,0.1-0.2,0-0.2c-0.3-0.3-1.2-1.2-1.5-1.5c-0.1-0.1-0.1-0.1-0.2,0c-0.3,0.3-1.2,1.2-1.5,1.5
		c0,0.1,0,0.1,0,0.2c0.3,0.3,1.2,1.2,1.5,1.5c0.1,0.1,0.1,0.1,0.2,0C110.3,54.4,111.2,53.5,111.5,53.2"/>
</g>
</svg>
