<svg id="Layer_1" data-name="Layer 1" xmlns="http://www.w3.org/2000/svg" width="285" height="63" viewBox="0 0 422.564 92.689">
  <defs>
    <style>
      .cls-1 {
        fill: #4d4d4f;
      }

      .cls-2 {
        fill: #c32033;
      }
    </style>
  </defs>
  <title>logo</title>
  <g>
    <path class="cls-1" d="M760.546,426.4a6.388,6.388,0,0,1-5.187,2.066h-1.209c-4.134,0-6.786-2.612-6.786-6.4V409.51c0-3.783,2.652-6.4,6.786-6.4h1.209a6.533,6.533,0,0,1,5.227,2.067,4.426,4.426,0,0,1,.857,1.287.416.416,0,0,1-.272.351l-1.482.741a.629.629,0,0,1-.351.117.3.3,0,0,1-.273-.156,4.909,4.909,0,0,0-3.705-2.146h-1.209a4.064,4.064,0,0,0-4.134,4.135v12.559a4.144,4.144,0,0,0,4.134,4.173h1.209a4.778,4.778,0,0,0,3.705-2.224.3.3,0,0,1,.273-.155.629.629,0,0,1,.351.117l1.482.74a.416.416,0,0,1,.272.352A4.209,4.209,0,0,1,760.546,426.4Z" transform="translate(-441.252 -356.382)"/>
    <path class="cls-1" d="M772.323,428.464h-1.209c-4.134,0-6.786-2.612-6.786-6.4V403.933c0-.273.117-.391.39-.391h1.872c.273,0,.391.117.391.391v18.136a4.144,4.144,0,0,0,4.134,4.173h1.209a4.229,4.229,0,0,0,4.173-4.173V403.933c0-.273.117-.391.391-.391h1.872c.272,0,.39.117.39.391v18.136C779.148,425.852,776.457,428.464,772.323,428.464Z" transform="translate(-441.252 -356.382)"/>
    <path class="cls-1" d="M797.245,428.075H784.452c-.272,0-.39-.117-.39-.39V403.933c0-.273.117-.391.39-.391h1.833c.273,0,.391.117.391.391v21.528c0,.273.117.391.39.391h10.18c.272,0,.39.116.39.39v1.443C797.635,427.958,797.518,428.075,797.245,428.075Z" transform="translate(-441.252 -356.382)"/>
    <path class="cls-1" d="M808.32,405.766H803.6c-.273,0-.391.117-.391.39v21.529c0,.272-.116.39-.39.39h-1.833c-.273,0-.39-.117-.39-.39V406.156c0-.272-.117-.39-.391-.39h-4.719c-.273,0-.39-.117-.39-.391v-1.442c0-.273.116-.391.39-.391H808.32c.273,0,.391.117.391.391v1.442C808.711,405.649,808.594,405.766,808.32,405.766Z" transform="translate(-441.252 -356.382)"/>
    <path class="cls-1" d="M819.4,428.464h-1.209c-4.134,0-6.786-2.612-6.786-6.4V403.933c0-.273.117-.391.39-.391h1.872c.273,0,.391.117.391.391v18.136a4.144,4.144,0,0,0,4.134,4.173H819.4a4.229,4.229,0,0,0,4.173-4.173V403.933c0-.273.117-.391.391-.391h1.872c.272,0,.39.117.39.391v18.136C826.221,425.852,823.529,428.464,819.4,428.464Z" transform="translate(-441.252 -356.382)"/>
    <path class="cls-1" d="M845.565,428.075h-2.106a.374.374,0,0,1-.351-.273l-3.744-10.842a.3.3,0,0,0-.312-.234h-4.914c-.272,0-.39.117-.39.391v10.569c0,.272-.117.39-.391.39h-1.833c-.272,0-.39-.117-.39-.39V403.933c0-.273.117-.391.39-.391h7.566c4.134,0,6.825,2.613,6.825,6.747v.43a6.442,6.442,0,0,1-3.705,5.148c-.156.077-.234.155-.234.272a1.606,1.606,0,0,0,.156.468l3.511,10.18a5.137,5.137,0,0,1,.312.975C845.955,427.958,845.838,428.075,845.565,428.075ZM843.3,409.9a4.178,4.178,0,0,0-4.212-4.134h-4.953c-.272,0-.39.117-.39.39v7.956c0,.273.117.391.39.391h4.953a4.2,4.2,0,0,0,4.212-4.213Z" transform="translate(-441.252 -356.382)"/>
    <path class="cls-1" d="M863.427,428.075H850.634c-.272,0-.39-.117-.39-.39V403.933c0-.273.117-.391.39-.391h12.793c.272,0,.39.117.39.391v1.442c0,.273-.117.391-.39.391h-10.18c-.272,0-.39.117-.39.39v7.956c0,.273.117.391.39.391h8.347c.272,0,.39.117.39.39v1.443c0,.272-.117.39-.39.39h-8.347c-.272,0-.39.117-.39.391v8.346c0,.273.117.391.39.391h10.18c.272,0,.39.116.39.39v1.443C863.816,427.958,863.7,428.075,863.427,428.075Z" transform="translate(-441.252 -356.382)"/>
  </g>
  <g>
    <g>
      <path class="cls-1" d="M631.635,408.779a.23.23,0,0,0,0-.3c-.446-.443-1.627-1.621-2.074-2.066a.223.223,0,0,0-.277-.012c-.426.457-1.656,1.652-2.085,2.092a.226.226,0,0,0,.009.27c.436.445,1.638,1.659,2.076,2.084a.218.218,0,0,0,.277,0h.021c.426-.425,1.607-1.629,2.053-2.07" transform="translate(-441.252 -356.382)"/>
      <path class="cls-1" d="M483.741,395.82c0-.008.172-.155.27-.084.069.044.038.26.038.26-.241,1.727-1.077,8.012-1.514,16.185-.058,1.337-.125,2.681-.16,4.019l-.014.457.265-.348a6.705,6.705,0,0,1,5.459-2.327,5.633,5.633,0,0,1,5.857,5.028,8.908,8.908,0,0,1-3.429,7.977,12.872,12.872,0,0,1-6.98,2.193c-2.7.055-5.442-.125-7.189-1.57-.989-.826-1.811-1.934-2.021-5.047-.015-.252-.033-.568-.033-.876a6.489,6.489,0,0,1,.033-.835c.017-.187.04-.257.129-.247.04.017.1.144.141.259a2.057,2.057,0,0,0,.24.51c1.49,2.931,6.622,3.369,8.359,3.339,3.608-.063,5.093-1.142,6.184-2.73a3.95,3.95,0,0,0,.667-2.989c-.28-1.45-1.342-2.165-3.147-2.165a4.581,4.581,0,0,0-4.557,4.788l-.014.366-.014.811c0,.212-.026.266-.085.279a.672.672,0,0,1-.318-.084l-3.235-1.886a1.211,1.211,0,0,1-.383-.3.7.7,0,0,1-.1-.47c.028-2.867.07-6.122.166-8.187.215-4.1.547-8.134,1.009-12.032a3.292,3.292,0,0,1,.171-.675,2.341,2.341,0,0,1,.421-.456c0,.015,3.784-3.159,3.784-3.159" transform="translate(-441.252 -356.382)"/>
      <path class="cls-1" d="M625.116,415.839c.711-.595,2.969-2.513,3.861-3.216.113-.115.184-.176.217-.147.063.032.034.185.021.331-.143,2.955-.217,5.918-.217,8.795v2.964c.074,1.313.285,2.078.678,2.391a3.544,3.544,0,0,0,2.921.492l.2-.02c.068-.017.205-.033.232.02.023.082-.208.2-.334.254l-.012.033a8.862,8.862,0,0,1-3.4,1.031l-.537.02a4.191,4.191,0,0,1-2.58-1.109l-.23-.228a1.455,1.455,0,0,1-.3-.377,3.686,3.686,0,0,1-.777-2.338c-.034-1.048.009-6.626.059-8.3a1.6,1.6,0,0,1,.031-.4.642.642,0,0,1,.172-.194" transform="translate(-441.252 -356.382)"/>
      <path class="cls-1" d="M591.434,424.618a4.525,4.525,0,0,1-3.394.894c-1.474-.2-2.326-.822-2.3-1.687.035-.925.723-1.433,2.035-1.5.967-.068,2.184.637,3.656,2.065l.129.119ZM623.1,419.01a5.635,5.635,0,0,0-5.872-5.028,6.635,6.635,0,0,0-5.434,2.327l-.28.348.019-.457c.046-1.338.074-2.682.162-4.019.427-8.173,1.272-14.458,1.511-16.185,0,0,.031-.216-.059-.26-.091-.071-.255.076-.255.084s-3.788,3.174-3.773,3.159a2.28,2.28,0,0,0-.412.456,1.944,1.944,0,0,0-.187.675c-.452,3.9-.791,7.929-.987,12.032-.122,2.065-.173,5.32-.208,8.187a.706.706,0,0,0,.137.47,1.765,1.765,0,0,0,.349.3l3.278,1.886a.536.536,0,0,0,.289.084c.065-.014.094-.067.094-.279v-.811l.02-.366a4.6,4.6,0,0,1,4.567-4.788c1.793,0,2.879.715,3.154,2.165a4.087,4.087,0,0,1-.662,2.989c-1.119,1.589-2.6,2.667-6.2,2.73-1.711.03-6.869-.408-8.355-3.339a1.306,1.306,0,0,1-.2-.422c-.055-.1-.14-.315-.2-.33-.08-.017-.1.1-.105.281a2.87,2.87,0,0,0-.076.37,4.353,4.353,0,0,1-1.209,2.552,5.081,5.081,0,0,1-3.445.479,17.322,17.322,0,0,1-2.638-.619l-.172-.062.067-.137c1.035-2.553,1.088-5.542.1-7.112a6.125,6.125,0,0,0-4.548-2.848c-1.856-.2-4.553.084-6.022,1.235-.754.562-1.022,2.028-1.108,2.982-.026.2-.036.388.034.4.052.041.168-.068.32-.2a7.421,7.421,0,0,1,3.049-1.516,5.585,5.585,0,0,1,3.43.4,3.776,3.776,0,0,1,1.979,2.929,4.649,4.649,0,0,1-.068,1.517l-.041.269-.2-.186c-2.128-2-3.486-2.586-5.381-2.29a4.665,4.665,0,0,0-2.77,1.642c-.476.44-1.692,2.166-2.836,2.608-2.265.921-12.073.493-13.49-.382-.841-.512-.725-1.8-.673-2.254v-.059c.014-.307.188-3.015.249-4.46a2.932,2.932,0,0,0-.541-2.238,2.521,2.521,0,0,0-1.67-.583,3.6,3.6,0,0,0-2.226,1.036,23.009,23.009,0,0,0-4.727,5.254c-.078.1-.178.286-.255.31-.16.056-.16-.185-.14-.284.009-2.081.245-7.76.245-8.038.431-8.192,1.263-14.482,1.517-16.2l.014-.056c.019-.128.03-.281-.014-.281-.1-.057-.21.042-.223.057s-3.881,3.274-3.881,3.258a2.946,2.946,0,0,0-.407.454,1.888,1.888,0,0,0-.176.691l-.011.111c-.345,2.979-.82,7.054-.992,11.909-.282,7.757-.249,11.55-.153,15.526.028,1.022.547,1.324.861,1.391.1.032,1.035.274,1.424-.47a35.077,35.077,0,0,1,6.987-9.7.587.587,0,0,1,.516-.231c.219.061.206.27.195.514l-.1,1.295c-.041.56-.064,1.071-.108,2.318s.067,4.192,2.063,5.313c2.074,1.147,12.339.946,12.339.946,3.316.045,3.863-.61,4.51-1.378a4.414,4.414,0,0,0,.7-1.214,4.909,4.909,0,0,0,2.417,2.446,7.174,7.174,0,0,0,5.975-.492,7.214,7.214,0,0,0,1.385-1.01l.115-.08.089.08a11.106,11.106,0,0,0,1.592,1.058,10.888,10.888,0,0,0,4.526.761c2.886-.09,3.906-1.386,4.134-2.2.041-.179.087-.388.128-.605a4.423,4.423,0,0,0,1.334,1.774c1.768,1.445,4.516,1.625,7.208,1.57a12.851,12.851,0,0,0,6.981-2.193,8.84,8.84,0,0,0,3.433-7.977" transform="translate(-441.252 -356.382)"/>
      <path class="cls-1" d="M549.364,404.175a13.9,13.9,0,0,0-6.934-5.35,16.251,16.251,0,0,0-5.74-.953s-2.736-.061-4.24-.178a4.112,4.112,0,0,1-1.971-.7c-.238-.178-.293-.326-.462-.326-.172.031-.172.454-.2.837-.217,2.7-.936,11.729-1.053,13.94-.093,2.055-.138,5.325-.158,8.21a.751.751,0,0,0,.1.476,1.95,1.95,0,0,0,.352.3l3.279,1.884c.108.057.206.1.283.071s.091-.127.091-.356v-.705l.034-.367.043-4.858.034-.682c.029-1.217.066-2.744.137-3.951.082-2.025.259-4.084.411-6.089h.016a4.171,4.171,0,0,1,.467-1.9,2.438,2.438,0,0,1,1.682-1.1,8.876,8.876,0,0,1,4.872.655,10.572,10.572,0,0,1,4.636,3.41,10.346,10.346,0,0,1,1.568,3.627,14.529,14.529,0,0,1-1.189,8.545,10.023,10.023,0,0,1-6.785,5.169,20.788,20.788,0,0,1-4.2.453c-1.747.01-8.5-.841-9.972-4.345-.147-.348-.169-.517-.346-.517s-.213.2-.278.522a8.125,8.125,0,0,1-.712,2.323c-.357.624-.86,2.059-6,1.973-3.612-.074-5.1-.1-6.476-.926a1.933,1.933,0,0,1-.7-1.7c0-.227.369-6.964.428-7.764.028-.254.059-.454-.073-.519-.131-.043-.253.076-.432.236-.664.566-1.818,1.516-2.521,2.141-.316.242-.43.324-.516.508a1.526,1.526,0,0,0-.138.627c-.121,2.177-.335,6.712-.335,6.712l-.048.035a7.108,7.108,0,0,1-2.8.755,9.029,9.029,0,0,1-4.75-.977,2.028,2.028,0,0,1-.97-1.315,2.76,2.76,0,0,1,.3-1.954c.483-.768,2.709-3.978,2.709-3.978.212-.356.227-.467.181-.627a.964.964,0,0,0-.345-.465c-.281-.242-.805-.543-1.4-.941l-.525-.334a.375.375,0,0,0-.535.056,12.673,12.673,0,0,0-2.8,8.131,6.96,6.96,0,0,0,2.025,4.911,8.037,8.037,0,0,0,6,1.946,6.268,6.268,0,0,0,3.94-1.647l.121-.1.1.1a2.907,2.907,0,0,0,.866.723c2.057,1.147,6.729,1.158,9.185,1.147,5.314-.051,6.949-1.654,7.42-3.092a5.411,5.411,0,0,0,1.056,1.339c2,1.794,6.136,2.114,8.413,2.121a24.89,24.89,0,0,0,8.615-1.185,13.169,13.169,0,0,0,5.963-4.353,16.49,16.49,0,0,0,3.048-10.254,15.256,15.256,0,0,0-2.779-9.381" transform="translate(-441.252 -356.382)"/>
      <path class="cls-1" d="M466.338,422.136h.036a12.4,12.4,0,0,1-3.128-2.219c-.721-.84-1.286-1.617-.021-2.792a6.81,6.81,0,0,1,1.884-.977c.431,2.136,1.229,5.988,1.229,5.988m8.892-2.689a4.458,4.458,0,0,0,.277-4.823c-1.115-2.418-3.465-3.672-6.936-3.358-.783-3.373-3.232-13.454-3.263-13.647a1.409,1.409,0,0,0-.52-.8,2.048,2.048,0,0,0-.966-.2,3.464,3.464,0,0,0-2.037.554,4.017,4.017,0,0,0-1.216,1.843c-.614,1.437-1.653,3.73-2.993,6.612q-1.356,2.865-3.087,6.57c-1.438,3.047-5.134,10.165-5.507,10.862a3.019,3.019,0,0,1-1.15,1.188,3.3,3.3,0,0,1-2.537.078,2.933,2.933,0,0,1-1.8-1.963,3.313,3.313,0,0,1-.1-1.259,3.68,3.68,0,0,1,1.119-2.251c.087-.069.144-.128.144-.2-.016-.074-.106-.074-.216-.041a4.592,4.592,0,0,0-3.174,3.777c0,.129-.021.257-.021.382a5.744,5.744,0,0,0,2.95,4.788c.995.552,4.845,2.113,7.112-.256a18.838,18.838,0,0,0,2.73-4.461c1.136-2.24,3.815-7.73,4.245-8.682.464-.933,3.026-6.262,4.334-8.867l.2-.356,1.477,7.313c-3.151,1.2-4.53,2.989-5.113,5.536-.684,2.747,1.9,6.667,8.366,9.7a30.091,30.091,0,0,0,3.937,1.377c.983.121,1.1-.332,1.137-.567a5.715,5.715,0,0,0-.284-1.784c-.2-.824-2.067-8.119-2.769-11.22,1.877-.114,3.406.238,4.314,1.414a4.337,4.337,0,0,1,.949,2.61c0,.368-.012.406.044.424s.152-.039.353-.3" transform="translate(-441.252 -356.382)"/>
      <path class="cls-1" d="M500.751,410.257c.43-.442,1.165-1.261,1.521-1.675.1-.1.137-.172.219-.172.109,0,.145.056.254.141.516.415,1.383,1.122,1.68,1.4a3.2,3.2,0,0,1,.952,2.154,2.622,2.622,0,0,1-.063.868,7.492,7.492,0,0,1-.878,2.347c-.046.086-.126.248-.216.213s-.079-.2-.068-.34c0-.127,0-.181-.011-.336a3.3,3.3,0,0,0-.838-2.1,26.14,26.14,0,0,0-2.511-1.983c-.122-.084-.154-.117-.182-.242-.014-.088.028-.114.141-.282" transform="translate(-441.252 -356.382)"/>
      <path class="cls-1" d="M577.1,418.471a.237.237,0,0,0,0-.3c-.437-.44-1.644-1.623-2.067-2.049a.2.2,0,0,0-.284-.016c-.423.426-1.672,1.654-2.088,2.08a.243.243,0,0,0,0,.286c.443.436,1.649,1.643,2.088,2.066a.191.191,0,0,0,.284,0c.423-.424,1.63-1.631,2.067-2.066" transform="translate(-441.252 -356.382)"/>
    </g>
    <path class="cls-2" d="M690.868,389.771c-1.488-1.573-6.18.671-9.227,4.125a27.729,27.729,0,0,0-4.307,7.408c.66-.084,5.367-2.361,9.515-5.621,1.622-1.275,5.517-4.348,4.019-5.912m-2.158,50.044c-5.063,1.872-13.293,3.357-20.8,1.383a26.608,26.608,0,0,1-3.764-1.289c8.782,7.739,17.316,11.058,22.705,8.078,6.954-3.834,13.159-10.462,17.676-18.481-4.469,5.211-10.654,8.405-15.82,10.31m-6.761-28.028c-1.618-.353-3.577,4.718-1.547,5.172a3.466,3.466,0,0,0,.864.061h0a11.023,11.023,0,0,0,2.96-.6c-.163-2.994-.964-4.342-2.277-4.629m-13.241-21.052c2.3,1.195,1.945,4.453,2.752,7.314a3.975,3.975,0,0,0,3.166,3.1s4.824-9.309.709-16.844-10.894-4.917-12.627-4.091c-2.3,1.092-11.1,6.765-15.519,18.688-4.369,11.806,1.93,15.852,5.825,16.523s9.864-3.263,10.063-5.279c.1-1.061-.684-1.729-1.851-2s-4.331.41-6.332-1.978c-2.476-2.954,1.788-9.475,4.151-11.781,2.469-2.4,6.1-5.5,9.662-3.652m21.6,32.022c.549-.561,2.2-2.184,2.755-2.745a.262.262,0,0,1,.375.022c.558.561,2.151,2.121,2.728,2.7a.313.313,0,0,1,0,.4c-.576.573-2.17,2.166-2.728,2.727a.257.257,0,0,1-.375,0c-.58-.561-2.17-2.154-2.755-2.727a.321.321,0,0,1,0-.378m-16.031-10.1c-.576.571-2.171,2.164-2.728,2.726a.255.255,0,0,1-.375,0c-.579-.562-2.17-2.155-2.754-2.726a.322.322,0,0,1,0-.379c.549-.562,2.2-2.184,2.754-2.744a.262.262,0,0,1,.375.02c.558.562,2.152,2.121,2.728,2.7a.315.315,0,0,1,0,.4m16.475-33.871c-.578.573-2.172,2.166-2.728,2.727a.256.256,0,0,1-.375,0c-.58-.561-2.17-2.154-2.755-2.727a.321.321,0,0,1,0-.378c.549-.562,2.2-2.184,2.755-2.745a.264.264,0,0,1,.375.021c.557.562,2.15,2.122,2.728,2.7a.317.317,0,0,1,0,.4m-3.428,56.535c11.166-4.062,14.666-10.2,17.187-14.43,5.333-8.988,5.478-19.091,5.025-22.033l.008-.138c-.284-2.468-.975-4.9-1.523-4.938-2.308-.134-5.5,16.411-7.317,25.608a8.772,8.772,0,0,1-.84,2.847,7.079,7.079,0,0,1-.951,1.415c-.33.364-.845.723-.713.026,4.209-22.283,6.9-34.237,9.348-39.051a1.96,1.96,0,0,1,.852-.97q-.7-1.583-1.546-3.12c-13.173-23.842-48.176-29.758-67.732-18.956-8.49,4.708-7.734,27.022,3.635,49.68-1.084-6.343.384-11.986,3.541-18.519,4.26-8.819,17.824-21.577,28.037-17.642,8.719,3.349,5.36,17.063,5.36,17.063s6.054-8.089,10.888-8.341c2.55-.132,6.906,1.741,1.658,10.295-6.146,10.023-16.394,14.51-19.992,12.416-3.154-1.834-3.217-5.416-3.42-6.371s-.719-4.15-3.658-4.383-8.245,3.852-7.575,5.667c.577,1.582,4.457.325,6.255,1.449s2.486,2.811,1.837,5.777c-1.921,8.852-9.285,14.157-14.429,12.909a12.6,12.6,0,0,1-3.48-1.41c1.59,2.535,3.244,4.939,4.94,7.2l1.523-2.609a.25.25,0,0,1,.231-.128,14.052,14.052,0,0,0,8.262-2.425c-1.312,4.3-3.063,7.076-9,6.5l.191.246c1.113.551,2.412,1.123,3.934,1.7,8.813,3.358,16.689-1.1,18.072-2.009,1.1-.726,5.57-3.354,7.454-6.922a11.267,11.267,0,0,1-2.257.114c-.565-.03-1.113-.086-1.284-.09-.881-.03-5.519-.763-2.508-7.753.54-1.25,2.563-6.09,5.466-5.018a5.509,5.509,0,0,1,3.73,4.512c.119.569.2,1.135.269,1.7a11.478,11.478,0,0,0,5.417-7.406c.507-2.871-.149-4.336-.952-4.472-1.094-.188-3.062,5.253-3.368,5.092s.01-.909.25-1.728c1.879-6.378,4.655-8.8,5.592-8.8s2.18,2.933,2.19,6.849c.017,6.153-3.614,13.267-9.283,15.99a16.1,16.1,0,0,1-2.977,7.1,22.274,22.274,0,0,1-22.412,7.471c-.893-.2-1.733-.432-2.531-.682q1.374,1.487,2.758,2.839c.357.08,1.023.224,2.3.441a50.066,50.066,0,0,0,23.529-2.562" transform="translate(-441.252 -356.382)"/>
  </g>
  <rect class="cls-1" x="287.026" y="46.618" width="1" height="26.07"/>
</svg>
