<?xml version="1.0" encoding="utf-8"?>
<!-- Generator: Adobe Illustrator 21.0.0, SVG Export Plug-In . SVG Version: 6.00 Build 0)  -->
<svg version="1.1" id="Layer_1" xmlns="http://www.w3.org/2000/svg" xmlns:xlink="http://www.w3.org/1999/xlink" x="0px" y="0px"
	 viewBox="0 0 35 35" style="enable-background:new 0 0 35 35;" xml:space="preserve">
<style type="text/css">
	.st0{fill:none;stroke:#FFFFFF;stroke-width:1.2;stroke-linecap:round;stroke-linejoin:round;stroke-miterlimit:10;}
</style>
<g>
	<path class="st0" d="M9.9,26.7c-2,0-3.7,1.4-4.1,3.3h0l1.1-6H13l1.1,6h0C13.6,28.1,11.9,26.7,9.9,26.7z"/>
	<path class="st0" d="M9.9,15c-2.4,0-4.4-1.5-5.1-3.7l2,10.3H13l2-10.3C14.3,13.4,12.3,15,9.9,15z"/>
	<line class="st0" x1="8.3" y1="21.6" x2="8.3" y2="23.9"/>
	<line class="st0" x1="11.3" y1="21.6" x2="11.3" y2="23.9"/>
</g>
<g>
	<path class="st0" d="M17.7,27.6c2,3,6.4,3.7,9.8,1.4s4.5-6.5,2.5-9.6s-9.3-8.1-12.7-5.9S15.7,24.5,17.7,27.6z"/>
	<g>
		<line class="st0" x1="22.7" y1="20.1" x2="14.1" y2="7.2"/>
		<line class="st0" x1="21.3" y1="21.1" x2="12.6" y2="8.1"/>
	</g>
	<g>
		<line class="st0" x1="26.6" y1="26" x2="25.3" y2="24"/>
		<line class="st0" x1="25.2" y1="27" x2="23.8" y2="25"/>
	</g>
	<ellipse transform="matrix(0.8334 -0.5527 0.5527 0.8334 -8.5825 16.6008)" class="st0" cx="23.2" cy="22.5" rx="2.1" ry="1.5"/>
	<line class="st0" x1="27.4" y1="25.8" x2="24.6" y2="27.6"/>
	<ellipse transform="matrix(0.8334 -0.5527 0.5527 0.8334 -1.7113 8.3162)" class="st0" cx="12.9" cy="7" rx="1.5" ry="0.9"/>
</g>
<g>
	<path class="st0" d="M20.6,9.8l-0.1-4.9c0-0.5,0.4-0.9,0.8-0.9l3.3-0.1c0.5,0,0.9,0.4,0.9,0.8l0.1,3.6"/>
	<circle class="st0" cx="19.8" cy="9.8" r="0.8"/>
	<circle class="st0" cx="24.8" cy="8.5" r="0.8"/>
</g>
</svg>
