<?xml version="1.0" encoding="utf-8"?>
<!-- Generator: Adobe Illustrator 21.0.0, SVG Export Plug-In . SVG Version: 6.00 Build 0)  -->
<svg version="1.1" id="Layer_1" xmlns="http://www.w3.org/2000/svg" xmlns:xlink="http://www.w3.org/1999/xlink" x="0px" y="0px"
	 viewBox="0 0 35 35" style="enable-background:new 0 0 35 35;" xml:space="preserve">
<style type="text/css">
	.st0{fill:none;stroke:#FFFFFF;stroke-width:1.2;stroke-linecap:round;stroke-linejoin:round;stroke-miterlimit:10;}
</style>
<g>
	<polygon class="st0" points="21.3,9.7 21.3,10.4 19.4,10.4 19.4,9.7 17.6,9.7 17.6,10.4 15.7,10.4 15.7,9.7 13.6,9.7 13.6,18.2 
		23.4,18.2 23.4,9.7 	"/>
	<rect x="18.5" y="5.7" class="st0" width="2.9" height="1.8"/>
	<line class="st0" x1="18.5" y1="6.1" x2="18.5" y2="9.4"/>
	<path class="st0" d="M19.7,16.6V14c0-0.7-0.6-1.2-1.2-1.2s-1.2,0.6-1.2,1.2v2.6H19.7z"/>
	<circle class="st0" cx="18.5" cy="12.6" r="11.5"/>
	<path class="st0" d="M18.5,24.1c-2,0-3.9-0.5-5.5-1.4v11.2l5.5-5l5.5,5V22.7C22.4,23.6,20.5,24.1,18.5,24.1z"/>
</g>
</svg>
