<?xml version="1.0" encoding="utf-8"?>
<!-- Generator: Adobe Illustrator 21.0.0, SVG Export Plug-In . SVG Version: 6.00 Build 0)  -->
<svg version="1.1" id="Layer_1" xmlns="http://www.w3.org/2000/svg" xmlns:xlink="http://www.w3.org/1999/xlink" x="0px" y="0px"
	 viewBox="0 0 35 35" style="enable-background:new 0 0 35 35;" xml:space="preserve">
<style type="text/css">
	.st0{fill:none;stroke:#FFFFFF;stroke-width:1.2;stroke-linecap:round;stroke-linejoin:round;stroke-miterlimit:10;}
</style>
<g>
	<g>
		<polygon class="st0" points="14.5,30.2 14.5,30.2 24.6,23.1 23.7,18.5 18.6,15.9 14.3,17.9 		"/>
		<line class="st0" x1="17.2" y1="24.9" x2="19.7" y2="20.1"/>
		<line class="st0" x1="21.1" y1="17.2" x2="23.3" y2="12.9"/>
		<rect x="23.6" y="3.6" transform="matrix(-0.8905 -0.455 0.455 -0.8905 44.4563 27.7792)" class="st0" width="3.9" height="9.9"/>
	</g>
	<line class="st0" x1="5.1" y1="27.3" x2="12.8" y2="27.3"/>
	<line class="st0" x1="20.7" y1="27.4" x2="30.3" y2="27.4"/>
	<path class="st0" d="M11.8,31.7H9.7v-1.2c0-0.6,0.5-1.1,1.1-1.1h1V31.7z"/>
	<path class="st0" d="M11.3,23.1H8.8v-1.7c0-0.6,0.5-1.1,1.1-1.1h1.4V23.1z"/>
	<path class="st0" d="M21.1,31.6l0.2-2.5l1.7,0.1c0.6,0,1.1,0.6,1.1,1.2l-0.1,1.4L21.1,31.6z"/>
</g>
</svg>
