<?xml version="1.0" encoding="utf-8"?>
<!-- Generator: Adobe Illustrator 21.0.0, SVG Export Plug-In . SVG Version: 6.00 Build 0)  -->
<svg version="1.1" id="Layer_1" xmlns="http://www.w3.org/2000/svg" xmlns:xlink="http://www.w3.org/1999/xlink" x="0px" y="0px"
	 viewBox="0 0 35 35" style="enable-background:new 0 0 35 35;" xml:space="preserve">
<style type="text/css">
	.st0{fill:none;stroke:#FFFFFF;stroke-width:1.2;stroke-linecap:round;stroke-linejoin:round;stroke-miterlimit:10;}
</style>
<g>
	<g>
		<path class="st0" d="M22.4,19.7c0-2.8-2-5.1-4.6-5.1s-4.6,2.3-4.6,5.1v2h9.1V19.7z"/>
		<path class="st0" d="M29,6.3h-4v2.8c0,0.8-0.6,1.4-1.2,1.4h-2.5c-0.7,0-1.2-0.6-1.2-1.4V6.3h-5v2.8c0,0.8-0.6,1.4-1.2,1.4h-2.5
			c-0.7,0-1.2-0.6-1.2-1.4V6.3H6.7C6,6.3,5.4,6.9,5.4,7.7v12.6c0,0.8,0.6,1.4,1.2,1.4H29c0.7,0,1.2-0.6,1.2-1.4V7.7
			C30.2,6.9,29.7,6.3,29,6.3z"/>
		<path class="st0" d="M31.9,28.7H3.1c-0.5,0-1-0.5-1-1v-5c0-0.5,0.5-1,1-1h28.8c0.6,0,1,0.5,1,1v5C32.9,28.2,32.5,28.7,31.9,28.7z"
			/>
	</g>
</g>
</svg>
