<?xml version="1.0" encoding="utf-8"?>
<!-- Generator: Adobe Illustrator 21.0.0, SVG Export Plug-In . SVG Version: 6.00 Build 0)  -->
<svg version="1.1" id="Layer_1" xmlns="http://www.w3.org/2000/svg" xmlns:xlink="http://www.w3.org/1999/xlink" x="0px" y="0px"
	 viewBox="0 0 35 35" style="enable-background:new 0 0 35 35;" xml:space="preserve">
<style type="text/css">
	.st0{fill:none;stroke:#FFFFFF;stroke-width:1.2;stroke-linecap:round;stroke-linejoin:round;stroke-miterlimit:10;}
</style>
<g>
	<g>
		<path class="st0" d="M19.4,8.9c-0.1,0.1-7.9,0-8.6,0v0c0,0,0,0,0,0c0,0,0,0,0,0v0c-0.7,0-8.5,0.1-8.6,0c0,0-2.4,8.5,5,17.2h3.6
			h0.1h3.6C21.8,17.5,19.4,8.9,19.4,8.9z"/>
		<g>
			<path class="st0" d="M1.8,12.6c0.1,0.8,0.9,1.5,1.8,1.5s1.7-0.6,1.8-1.5"/>
			<path class="st0" d="M5.4,12.6c0.1,0.8,0.9,1.5,1.8,1.5s1.7-0.6,1.8-1.5"/>
			<path class="st0" d="M9,12.6c0.1,0.8,0.9,1.5,1.8,1.5s1.7-0.6,1.8-1.5"/>
			<path class="st0" d="M12.5,12.6c0.1,0.8,0.9,1.5,1.8,1.5c0.9,0,1.7-0.6,1.8-1.5"/>
			<path class="st0" d="M16.1,12.6c0.1,0.8,0.9,1.5,1.8,1.5c0.9,0,1.7-0.6,1.8-1.5"/>
		</g>
		<line class="st0" x1="4.5" y1="22.3" x2="16.9" y2="22.3"/>
	</g>
	<g>
		<path class="st0" d="M24.5,25.8L24.5,25.8c-0.6,0.6-1.4,0.6-1.9,0l-4.1-4.1c-0.5-0.5-0.5-1.4,0-1.9l0,0c0.5-0.5,1.4-0.5,1.9,0
			l4.1,4.1C25.1,24.5,25,25.3,24.5,25.8z"/>
		<path class="st0" d="M31.2,19.2L31.2,19.2c-0.6,0.6-1.4,0.6-1.9,0l-4.1-4.1c-0.5-0.5-0.5-1.4,0-1.9l0,0c0.5-0.5,1.4-0.5,1.9,0
			l4.1,4.1C31.7,17.9,31.7,18.7,31.2,19.2z"/>
		<line class="st0" x1="20.8" y1="20.1" x2="25.4" y2="15.6"/>
		<line class="st0" x1="24.4" y1="23.8" x2="29" y2="19.3"/>
		<path class="st0" d="M25.2,23.3c0,0,0.9,1,4.1,0.1s3.6-0.1,3.6-0.1"/>
		<line class="st0" x1="22" y1="19.1" x2="25.5" y2="22.6"/>
		<line class="st0" x1="23.2" y1="17.9" x2="26.7" y2="21.4"/>
		<line class="st0" x1="24.3" y1="16.7" x2="27.8" y2="20.2"/>
	</g>
</g>
</svg>
