<?xml version="1.0" encoding="utf-8"?>
<!-- Generator: Adobe Illustrator 21.0.0, SVG Export Plug-In . SVG Version: 6.00 Build 0)  -->
<svg version="1.1" id="Layer_1" xmlns="http://www.w3.org/2000/svg" xmlns:xlink="http://www.w3.org/1999/xlink" x="0px" y="0px"
	 viewBox="0 0 35 35" style="enable-background:new 0 0 35 35;" xml:space="preserve">
<style type="text/css">
	.st0{fill:none;stroke:#FFFFFF;stroke-width:1.2;stroke-linecap:round;stroke-linejoin:round;stroke-miterlimit:10;}
</style>
<g>
	<g>
		<path class="st0" d="M25.1,30.2c0-4.4-3.6-8-8-8s-8,3.6-8,8H25.1z"/>
		<g>
			<line class="st0" x1="14.2" y1="22.6" x2="14.2" y2="19.4"/>
			<line class="st0" x1="19.9" y1="22.6" x2="19.9" y2="19.3"/>
		</g>
		<line class="st0" x1="12.7" y1="19" x2="21.4" y2="19"/>
	</g>
	<g>
		<line class="st0" x1="24.5" y1="5.3" x2="19.3" y2="18.7"/>
		<path class="st0" d="M23.5,10.5l1.4-0.4l0.3-0.9c0.4-1,0.5-4-0.6-4.4c-1.1-0.4-3,1.8-3.4,2.8l-1.6,4.2c-0.4,1-0.5,4,0.6,4.4
			c1.1,0.4,3-1.8,3.4-2.8l1-2.6L23.5,10.5z"/>
	</g>
</g>
</svg>
