<?xml version="1.0" encoding="utf-8"?>
<!-- Generator: Adobe Illustrator 21.0.0, SVG Export Plug-In . SVG Version: 6.00 Build 0)  -->
<svg version="1.1" id="Layer_1" xmlns="http://www.w3.org/2000/svg" xmlns:xlink="http://www.w3.org/1999/xlink" x="0px" y="0px"
	 viewBox="0 0 35 35" style="enable-background:new 0 0 35 35;" xml:space="preserve">
<style type="text/css">
	.st0{fill:none;stroke:#FFFFFF;stroke-width:1.2;stroke-linecap:round;stroke-linejoin:round;stroke-miterlimit:10;}
</style>
<g>
	<path class="st0" d="M31.7,7.7c-1,0-1.5-0.5-1.5-0.5c-0.2-0.5-0.8-0.8-1.2-1c-1.2-0.3-1.9,0.7-1.9,0.7c-1,1.9-1.5,6.3-1.5,6.3
		c-1,1.7-2.4,0.5-2.4,0.5c-2.9-4.4-4.4-4.1-4.4-4.1c-1.5-3.6-3.1-3.1-3.1-3.1c-1.7,0-3.1,3.1-3.1,3.1c-1.5,3.1-2.7,3.9-2.7,3.9
		C8.3,14.2,8.5,16,8.5,16l0.1,2.5v-0.1v9.3c0,0.7,0.5,1.2,1.2,1.2c0.7,0,1.2-0.5,1.2-1.2v-8.1h10.2v8.1c0,0.7,0.5,1.2,1.2,1.2
		c0.7,0,1.2-0.5,1.2-1.2v-9.3v0.1c4.6,0.3,4.8-4.1,4.8-4.1c0.2-1.9,0.5-3.4,0.5-3.4c0.2-1,1-1.5,1-1.5c0.7-0.5,1.7-0.2,1.7-0.2
		C32.5,8.6,31.7,7.7,31.7,7.7z"/>
	<path class="st0" d="M24.9,23.1c0,0,2.5-3.3,5.7-0.1"/>
	<path class="st0" d="M2.2,23.6c0,0,2.5-3.3,5.7-0.1"/>
	<path class="st0" d="M14.3,27.8c0,0,2.8-3.9,6.8-0.4"/>
</g>
</svg>
